<?xml version="1.0" standalone="no"?>
<!DOCTYPE svg PUBLIC "-//W3C//DTD SVG 1.1//EN" "http://www.w3.org/Graphics/SVG/1.1/DTD/svg11.dtd" >
<svg>
<metadata>
Created by FontForge 20110222 at Tue Apr 22 19:09:23 2014
 By Orthosie Webhosting
Copyright 2013 Alipay Incorporated. All rights reserved.
</metadata>
<defs>
<font id="ztc" horiz-adv-x="2048" >
  <font-face 
    font-family="ztc"
    font-weight="400"
    font-stretch="normal"
    units-per-em="2048"
    panose-1="0 0 0 0 0 0 0 0 0 0"
    ascent="1755"
    descent="-293"
    x-height="1142"
    bbox="5 -288 4556 1716"
    underline-thickness="102"
    underline-position="-102"
    unicode-range="U+0078-F067"
  />
<missing-glyph horiz-adv-x="1024" 
 />
    <glyph glyph-name=".notdef" horiz-adv-x="1024" 
 />
    <glyph glyph-name="uni2004" unicode="&#x2004;" horiz-adv-x="1578" 
d="M1561 275q-5 -118 -34 -203.5t-74 -144.5t-102 -96t-118.5 -58t-123 -29.5t-116 -11.5t-97.5 -3.5t-66 -5.5q-7 0 -12 3q-5 2 -8.5 7.5t-3.5 15.5q0 -10 -0.5 -15t-3 -7.5t-8 -3t-15.5 -0.5q-23 5 -66 5.5t-97.5 3.5t-117 11.5t-125 29.5t-121.5 58t-106.5 96
t-79.5 144.5t-41 203.5q0 171 34.5 308.5t89 246t122.5 190t135 139t127 94t98 55.5q-15 28 -34.5 59.5t-41.5 63.5t-46 63.5t-46 59.5q-53 66 -110 132l453 26l454 -26q-58 -66 -111 -132q-23 -28 -46.5 -59.5t-46 -63.5t-42 -63.5t-33.5 -59.5q44 -19 106 -55.5t128.5 -94
t131.5 -139t114.5 -190t77.5 -246t22 -308.5zM806 705q38 0 74.5 -16t74.5 -33l77 73q-19 20 -38.5 34.5t-40.5 26.5t-45 22t-52 20v98h-77v-98q-37 -10 -69 -29.5t-55 -48t-36.5 -66t-13.5 -84.5q0 -48 13.5 -85.5t36.5 -63.5t55 -39.5t69 -13.5h77q37 -18 56.5 -40
t19.5 -59q0 -19 -9 -37t-25.5 -32.5t-40 -23t-51.5 -8.5q-38 0 -76 18t-76 55l-77 -99q41 -37 93 -56t109 -19v-150h77v150q37 0 69 13.5t56 39.5t37.5 63.5t13.5 85.5q0 57 -9.5 95t-28.5 61.5t-47 33.5t-65 10l-103 24q-18 0 -32 8.5t-23.5 21t-14.5 25.5t-5 22
q0 19 9 37.5t23.5 32.5t32.5 22.5t37 8.5zM1561 275q-5 -118 -34 -203.5t-74 -144.5t-102 -96t-118.5 -58t-123 -29.5t-116 -11.5t-97.5 -3.5t-66 -5.5q-7 0 -12 3q-5 2 -8.5 7.5t-3.5 15.5q0 -10 -0.5 -15t-3 -7.5t-8 -3t-15.5 -0.5q-23 5 -66 5.5t-97.5 3.5t-117 11.5
t-125 29.5t-121.5 58t-106.5 96t-79.5 144.5t-41 203.5q0 171 34.5 308.5t89 246t122.5 190t135 139t127 94t98 55.5q-15 28 -34.5 59.5t-41.5 63.5t-46 63.5t-46 59.5q-53 66 -110 132l453 26l454 -26q-58 -66 -111 -132q-23 -28 -46.5 -59.5t-46 -63.5t-42 -63.5
t-33.5 -59.5q44 -19 106 -55.5t128.5 -94t131.5 -139t114.5 -190t77.5 -246t22 -308.5zM806 705q38 0 74.5 -16t74.5 -33l77 73q-19 20 -38.5 34.5t-40.5 26.5t-45 22t-52 20v98h-77v-98q-37 -10 -69 -29.5t-55 -48t-36.5 -66t-13.5 -84.5q0 -48 13.5 -85.5t36.5 -63.5
t55 -39.5t69 -13.5h77q37 -18 56.5 -40t19.5 -59q0 -19 -9 -37t-25.5 -32.5t-40 -23t-51.5 -8.5q-38 0 -76 18t-76 55l-77 -99q41 -37 93 -56t109 -19v-150h77v150q37 0 69 13.5t56 39.5t37.5 63.5t13.5 85.5q0 57 -9.5 95t-28.5 61.5t-47 33.5t-65 10l-103 24
q-18 0 -32 8.5t-23.5 21t-14.5 25.5t-5 22q0 19 9 37.5t23.5 32.5t32.5 22.5t37 8.5z" />
    <glyph glyph-name="uni2005" unicode="&#x2005;" horiz-adv-x="1920" 
d="M968 -279q-151 0 -271.5 5.5t-216.5 14.5t-169 18.5t-129 18.5t-97 14.5t-72 5.5q0 75 31.5 165t87.5 182t134.5 178.5t173.5 152.5q57 37 99.5 61.5t73 42t50.5 31t32 29t16.5 36t4.5 51.5q0 44 -13 77t-33 63t-42.5 60t-42.5 68.5t-33 89t-13 119.5q0 132 24.5 226.5
t77 156t133.5 90.5t194 29q103 0 179 -36t125.5 -102t74 -158.5t24.5 -205.5q0 -70 -13 -118.5t-33 -84.5t-42.5 -65t-42.5 -58.5t-33 -65t-13 -85.5q0 -29 22.5 -54t62.5 -53t95.5 -62.5t121.5 -81.5q75 -66 147 -148.5t128.5 -169.5t91 -174t34.5 -162q-29 0 -100 -19
t-186 -40.5t-275.5 -36t-367.5 -5.5zM968 727l-227 -655l227 -274l250 274zM968 -279q-151 0 -271.5 5.5t-216.5 14.5t-169 18.5t-129 18.5t-97 14.5t-72 5.5q0 75 31.5 165t87.5 182t134.5 178.5t173.5 152.5q57 37 99.5 61.5t73 42t50.5 31t32 29t16.5 36t4.5 51.5
q0 44 -13 77t-33 63t-42.5 60t-42.5 68.5t-33 89t-13 119.5q0 132 24.5 226.5t77 156t133.5 90.5t194 29q103 0 179 -36t125.5 -102t74 -158.5t24.5 -205.5q0 -70 -13 -118.5t-33 -84.5t-42.5 -65t-42.5 -58.5t-33 -65t-13 -85.5q0 -29 22.5 -54t62.5 -53t95.5 -62.5
t121.5 -81.5q75 -66 147 -148.5t128.5 -169.5t91 -174t34.5 -162q-29 0 -100 -19t-186 -40.5t-275.5 -36t-367.5 -5.5zM968 727l-227 -655l227 -274l250 274z" />
    <glyph glyph-name="uni2006" unicode="&#x2006;" horiz-adv-x="2820" 
d="M2677 -181h-459v80q30 0 55 27.5t25 72.5q0 15 -7 29t-18 25t-25.5 18t-29.5 7h-199q-23 0 -41 -7t-31.5 -18t-20.5 -25t-7 -29q0 -45 27.5 -72.5t72.5 -27.5v-80h-1216v80q15 0 32.5 7t32 20.5t24.5 31.5t10 41q0 15 -10 29t-24.5 25t-32 18t-32.5 7h-179q-23 0 -41 -7
t-31.5 -18t-20.5 -25t-7 -29q0 -45 27.5 -72.5t72.5 -27.5v-80h-479q-45 0 -72.5 25t-27.5 55v1615q0 45 27.5 72.5t72.5 27.5h2532q45 0 72.5 -27.5t27.5 -72.5v-1615q0 -30 -27.5 -55t-72.5 -25zM1441 1355q0 22 -4 34.5t-11.5 18t-19 6.5t-26.5 1h-1056q-23 0 -38 -1
t-24.5 -6.5t-13.5 -18t-4 -34.5v-1037q0 -22 4 -34t13.5 -17.5t24.5 -6.5t38 -1h1056q15 0 26.5 1t19 6.5t11.5 17.5t4 34v1037zM2538 1216q-30 30 -67 49t-78.5 30t-85.5 15.5t-89 4.5q-67 0 -120.5 -8t-98.5 -24.5t-83.5 -43t-75.5 -63.5q-38 -30 -70.5 -67t-57 -78.5
t-38.5 -85.5t-14 -89t10.5 -89t29.5 -85t44.5 -78t55.5 -67q75 -75 166.5 -117t211.5 -42q60 0 117 5t103 35q60 15 107.5 32.5t92.5 47.5l-40 59h-20q-30 -15 -60 -29.5t-60 -29.5q-45 -15 -102.5 -27.5t-117.5 -12.5q-45 0 -82.5 10t-71.5 25t-64.5 32t-60.5 32
q-30 30 -58.5 63.5t-51 71t-36 78.5t-13.5 86q0 37 10.5 71t29.5 66t44 62t55 60q60 61 137 91t182 30q60 0 117.5 -12.5t102.5 -27.5q75 -46 107.5 -105.5t32.5 -134.5q0 -45 -12.5 -87.5t-27.5 -72.5q-30 -45 -60 -62t-60 -17q-8 0 -12 0.5t-8 2t-8 5.5t-11 12
q-14 0 -18 10q-3 4 -2 10v39q15 15 17.5 20t2.5 20l79 259h-121l-19 -80q0 15 -12.5 30t-27.5 30t-42.5 27.5t-57.5 12.5q-60 0 -107 -27.5t-92 -72.5q-30 -44 -55 -91.5t-25 -107.5q0 -45 15 -77t45 -62q30 -15 60 -27.5t60 -12.5q44 0 76.5 5t62.5 35l60 60v-20
q0 -15 2.5 -30t17.5 -30t43 -17.5t57 -2.5q22 0 48 4.5t52 15.5t51.5 30.5t48.5 49.5q22 22 37 45t24.5 49t13.5 56.5t4 68.5q0 37 -8 73.5t-24.5 70.5t-43 63.5t-63.5 52.5zM2138 717q-30 0 -47 2.5t-32 17.5q0 7 -3 17.5t-7 22t-7 21.5t-3 18q0 30 15 70t44 70
q15 45 45 62t75 17q15 0 27.5 -2.5t12.5 -17.5q15 -15 17.5 -29.5t2.5 -29.5q0 -30 -5 -62.5t-35 -77.5q-15 -45 -42.5 -72t-57.5 -27zM364 498q15 7 28.5 24t38 35.5t65 35t108.5 24.5q40 5 63 21.5t34.5 39t14.5 46.5t3 44.5t-0.5 34t4.5 13.5l-20 20q-22 35 -40 72
q-15 32 -27 70.5t-12 76.5v80q2 62 20 110q7 21 18.5 40.5t28.5 35t39.5 25t52.5 9.5l139 -40q30 0 53 -7.5t39.5 -20.5t28 -29t19.5 -33q18 -40 20 -90v-100q-1 -40 -10 -75q-8 -30 -24 -59.5t-46 -44.5q-6 -11 -8 -20q-2 -8 -1 -14t9 -6q-26 -51 -30 -92q-2 -18 0.5 -35.5
t12.5 -32t28.5 -25t48.5 -14.5q67 -8 110.5 -24.5t71.5 -35t45 -35.5t32 -24q14 -8 25 -37t19 -61q9 -38 15 -82h-1056q1 34 5 67q4 28 12 59t23 54zM2677 -181h-459v80q30 0 55 27.5t25 72.5q0 15 -7 29t-18 25t-25.5 18t-29.5 7h-199q-23 0 -41 -7t-31.5 -18t-20.5 -25
t-7 -29q0 -45 27.5 -72.5t72.5 -27.5v-80h-1216v80q15 0 32.5 7t32 20.5t24.5 31.5t10 41q0 15 -10 29t-24.5 25t-32 18t-32.5 7h-179q-23 0 -41 -7t-31.5 -18t-20.5 -25t-7 -29q0 -45 27.5 -72.5t72.5 -27.5v-80h-479q-45 0 -72.5 25t-27.5 55v1615q0 45 27.5 72.5
t72.5 27.5h2532q45 0 72.5 -27.5t27.5 -72.5v-1615q0 -30 -27.5 -55t-72.5 -25v0zM1441 1355q0 22 -4 34.5t-11.5 18t-19 6.5t-26.5 1h-1056q-23 0 -38 -1t-24.5 -6.5t-13.5 -18t-4 -34.5v-1037q0 -22 4 -34t13.5 -17.5t24.5 -6.5t38 -1h1056q15 0 26.5 1t19 6.5t11.5 17.5
t4 34v1037zM2538 1216q-30 30 -67 49t-78.5 30t-85.5 15.5t-89 4.5q-67 0 -120.5 -8t-98.5 -24.5t-83.5 -43t-75.5 -63.5q-38 -30 -70.5 -67t-57 -78.5t-38.5 -85.5t-14 -89t10.5 -89t29.5 -85t44.5 -78t55.5 -67q75 -75 166.5 -117t211.5 -42q60 0 117 5t103 35
q60 15 107.5 32.5t92.5 47.5l-40 59h-20q-30 -15 -60 -29.5t-60 -29.5q-45 -15 -102.5 -27.5t-117.5 -12.5q-45 0 -82.5 10t-71.5 25t-64.5 32t-60.5 32q-30 30 -58.5 63.5t-51 71t-36 78.5t-13.5 86q0 37 10.5 71t29.5 66t44 62t55 60q60 61 137 91t182 30
q60 0 117.5 -12.5t102.5 -27.5q75 -46 107.5 -105.5t32.5 -134.5q0 -45 -12.5 -87.5t-27.5 -72.5q-30 -45 -60 -62t-60 -17q-8 0 -12 0.5t-8 2t-8 5.5t-11 12q-14 0 -18 10q-3 4 -2 10v39q15 15 17.5 20t2.5 20l79 259h-121l-19 -80q0 15 -12.5 30t-27.5 30t-42.5 27.5
t-57.5 12.5q-60 0 -107 -27.5t-92 -72.5q-30 -44 -55 -91.5t-25 -107.5q0 -45 15 -77t45 -62q30 -15 60 -27.5t60 -12.5q44 0 76.5 5t62.5 35l60 60v-20q0 -15 2.5 -30t17.5 -30t43 -17.5t57 -2.5q22 0 48 4.5t52 15.5t51.5 30.5t48.5 49.5q22 22 37 45t24.5 49t13.5 56.5
t4 68.5q0 37 -8 73.5t-24.5 70.5t-43 63.5t-63.5 52.5zM2138 717q-30 0 -47 2.5t-32 17.5q0 7 -3 17.5t-7 22t-7 21.5t-3 18q0 30 15 70t44 70q15 45 45 62t75 17q15 0 27.5 -2.5t12.5 -17.5q15 -15 17.5 -29.5t2.5 -29.5q0 -30 -5 -62.5t-35 -77.5q-15 -45 -42.5 -72
t-57.5 -27zM364 498q15 7 28.5 24t38 35.5t65 35t108.5 24.5q40 5 63 21.5t34.5 39t14.5 46.5t3 44.5t-0.5 34t4.5 13.5l-20 20q-22 35 -40 72q-15 32 -27 70.5t-12 76.5v80q2 62 20 110q7 21 18.5 40.5t28.5 35t39.5 25t52.5 9.5l139 -40q30 0 53 -7.5t39.5 -20.5t28 -29
t19.5 -33q18 -40 20 -90v-100q-1 -40 -10 -75q-8 -30 -24 -59.5t-46 -44.5q-6 -11 -8 -20q-2 -8 -1 -14t9 -6q-26 -51 -30 -92q-2 -18 0.5 -35.5t12.5 -32t28.5 -25t48.5 -14.5q67 -8 110.5 -24.5t71.5 -35t45 -35.5t32 -24q14 -8 25 -37t19 -61q9 -38 15 -82h-1056
q1 34 5 67q4 28 12 59t23 54z" />
    <glyph glyph-name="uni2007" unicode="&#x2007;" horiz-adv-x="1472" 
d="M1294 -283h-1098q-38 0 -72 15t-59.5 40.5t-40.5 59t-15 71.5v676q0 38 15 72t40.5 59t59.5 39.5t72 14.5h66v507q0 95 38.5 175.5t103.5 139.5t151 92t181 33q108 0 198 -33t155 -92t101 -139.5t36 -175.5v-507h68q38 0 69 -14.5t53 -39.5t34 -59t12 -72v-676
q0 -38 -12 -71.5t-34 -59t-53 -40.5t-69 -15zM989 1271q0 38 -20.5 72t-55.5 59.5t-80.5 40.5t-96.5 15q-45 0 -87.5 -15t-75.5 -40.5t-53.5 -59.5t-20.5 -72v-439q0 -13 2 -27.5t16 -40.5h456q0 26 8 40.5t8 27.5v439zM736 579q-45 0 -87.5 -18t-75.5 -50t-53.5 -75
t-20.5 -94q0 -38 9 -70t25 -59t37.5 -49t46.5 -41v-102q0 -25 9 -46.5t25 -37.5t38 -25t47 -9t49.5 9t43.5 25t30.5 37.5t11.5 46.5v102q25 19 46.5 41t37.5 49t25 59t9 70q0 51 -20.5 94t-55.5 75t-80.5 50t-96.5 18zM1294 -283h-1098q-38 0 -72 15t-59.5 40.5t-40.5 59
t-15 71.5v676q0 38 15 72t40.5 59t59.5 39.5t72 14.5h66v507q0 95 38.5 175.5t103.5 139.5t151 92t181 33q108 0 198 -33t155 -92t101 -139.5t36 -175.5v-507h68q38 0 69 -14.5t53 -39.5t34 -59t12 -72v-676q0 -38 -12 -71.5t-34 -59t-53 -40.5t-69 -15zM989 1271
q0 38 -20.5 72t-55.5 59.5t-80.5 40.5t-96.5 15q-45 0 -87.5 -15t-75.5 -40.5t-53.5 -59.5t-20.5 -72v-439q0 -13 2 -27.5t16 -40.5h456q0 26 8 40.5t8 27.5v439zM736 579q-45 0 -87.5 -18t-75.5 -50t-53.5 -75t-20.5 -94q0 -38 9 -70t25 -59t37.5 -49t46.5 -41v-102
q0 -25 9 -46.5t25 -37.5t38 -25t47 -9t49.5 9t43.5 25t30.5 37.5t11.5 46.5v102q25 19 46.5 41t37.5 49t25 59t9 70q0 51 -20.5 94t-55.5 75t-80.5 50t-96.5 18z" />
    <glyph glyph-name="uni2008" unicode="&#x2008;" horiz-adv-x="1236" 
d="M1089 -277h-940q-55 0 -81.5 22.5t-37.5 50.5q-12 32 -10 73v1687q0 55 20 84.5t44 43.5q28 16 65 18h925q27 0 47.5 -6.5t36 -16.5t26 -23.5t17.5 -26.5q16 -33 18 -73v-1687q0 -55 -20.5 -84.5t-44.5 -43.5q-29 -16 -65 -18zM619 -131q26 0 37 20.5t11 43.5
q0 26 -11 45.5t-37 19.5q-36 0 -58 -19.5t-22 -45.5q0 -23 22 -43.5t58 -20.5zM376 1637q-12 0 -22 -10t-10 -22t10 -23t22 -11q13 0 22.5 11t9.5 23t-9.5 22t-22.5 10zM749 1637h-275v-66h275v66zM1089 1491h-940v-1362h940v1362zM1089 -277h-940q-55 0 -81.5 22.5
t-37.5 50.5q-12 32 -10 73v1687q0 55 20 84.5t44 43.5q28 16 65 18h925q27 0 47.5 -6.5t36 -16.5t26 -23.5t17.5 -26.5q16 -33 18 -73v-1687q0 -55 -20.5 -84.5t-44.5 -43.5q-29 -16 -65 -18zM619 -131q26 0 37 20.5t11 43.5q0 26 -11 45.5t-37 19.5q-36 0 -58 -19.5
t-22 -45.5q0 -23 22 -43.5t58 -20.5zM376 1637q-12 0 -22 -10t-10 -22t10 -23t22 -11q13 0 22.5 11t9.5 23t-9.5 22t-22.5 10zM749 1637h-275v-66h275v66zM1089 1491h-940v-1362h940v1362z" />
    <glyph glyph-name="uni2009" unicode="&#x2009;" horiz-adv-x="2996" 
d="M2686 -251h-2353q-58 0 -109.5 19.5t-90 54t-61.5 82.5t-23 105v1418q0 56 23 104.5t61.5 83t90 54t109.5 19.5h2353q57 0 105 -19.5t82.5 -54t54 -83t19.5 -104.5v-1418q0 -57 -19.5 -105t-54 -82.5t-82.5 -54t-105 -19.5zM2229 -164h261v350h-261v-350zM1945 -164h87
v350h-87v-350zM1508 -76h175v-88h88v350h-88v-87h-175v-175zM680 -164h284v263h-87v87h-197v-350zM333 10h86v-174h175v350h-261v-176zM333 731h261v86h-349q0 -25 7 -41.5t20 -26t28.5 -14t32.5 -4.5zM245 905h174h22q-17 16 -19.5 35t-2.5 51h-174v-86zM333 1252
q-17 0 -32.5 -7.5t-28.5 -19.5t-20 -27.5t-7 -31.5v-88h196q9 16 24.5 31.5t36 28.5t44 20.5t48.5 7.5v86h-261zM594 1078q-17 0 -32.5 -6.5t-28 -19.5t-19.5 -28.5t-7 -32.5t7 -36t19.5 -34.5t28 -27t32.5 -11.5q24 0 41 11.5t27 27t14 34.5t4 36t-4 32.5t-14 28.5
t-27 19.5t-41 6.5zM964 1252h-284v-86h371q0 16 -7 31.5t-20 27.5t-28.5 19.5t-31.5 7.5zM1051 1078h-304q8 -8 12 -19t6 -23.5t2.5 -24t0.5 -20.5h283v87zM1051 905h-283q-8 -9 -16 -14t-14 -9t-10 -8.5t-4 -12.5q-7 0 -12 -3.5t-9 -7t-9 -7t-14 -3.5v-109h284
q16 0 31.5 4.5t28.5 14t20 26t7 41.5v88zM1314 186h-88v-176h88v176zM1314 -76h-88v86h-88v-86h-87v-88h263v88zM2185 1603q-93 0 -179 -24.5t-161 -68t-137.5 -104.5t-106.5 -133t-68.5 -154.5t-24.5 -170.5q0 -93 24.5 -179t68.5 -161.5t106.5 -136.5t137.5 -105.5
t161 -69t179 -24.5t179 24.5t161.5 69t136.5 105.5t105.5 136.5t69 161.5t24.5 179q0 87 -23 170t-65.5 155t-103 133t-135.5 104.5t-162.5 68t-186.5 24.5zM2751 882q-3 -45 -15 -86t-28 -76.5t-35 -66.5t-39 -57q-45 -61 -101 -106q-17 8 -22 19.5t-5 21.5q0 12 6 25v44
l21 64q-1 24 -11 38q-8 13 -26 18t-49 -12q-33 -8 -48.5 -12t-26 -6t-22 -2.5t-34.5 -0.5q-17 0 -28 6t-19 17t-12.5 24.5t-6.5 28.5q-5 33 0 77v108q0 8 8.5 13t22 8t31.5 4.5t35 1.5q44 0 100 -5q20 -16 36.5 -25t29 -12t22.5 -1.5t18 5.5q16 10 24 33l86 65l23 23l-66 64
l-65 22q-17 -1 -27 -8q-8 -6 -10 -19.5t15 -38.5q-2 -12 -6 -21q-5 -8 -13 -15t-24 -7l-43 87q-7 -19 -17 -36q-8 -14 -20.5 -28.5t-28.5 -22.5q-17 -8 -35.5 -9t-35.5 1q-19 3 -38 8q-6 36 -6 68q0 26 5.5 51t21.5 34l66 -22q-6 6 -9 13q-2 6 -1 14.5t10 15.5q0 16 4 19
t10 3t13.5 2t15.5 19q17 9 30 0t25.5 -21t25.5 -20.5t29 -1.5q16 0 22 4t8 10t3.5 13.5t9.5 15.5q17 0 29.5 -7t20.5 -14q8 -10 15 -22l66 -21v64q11 -17 21.5 -42t20 -55t16.5 -60t10.5 -56t3 -45t-6.5 -24h-21h-87l65 -43q6 -13 13 -22q6 -9 14.5 -16t15.5 -7zM2643 1275
q8 0 12.5 -0.5t8 -2.5t8.5 -6.5t14 -13.5q-9 9 -14 13.5t-8.5 6.5t-8 2.5t-12.5 0.5zM2447 1275q-19 1 -31 6q-11 4 -16.5 12.5t2.5 25.5l22 65v65q17 0 47 -16t62 -49q-8 -41 -22 -63t-29 -33q-17 -11 -35 -13zM2293 1275q-7 0 -5.5 10t8.5 23q7 15 20 33q0 5 3 10
q2 4 6.5 7.5t11.5 3.5q8 0 9 -4t-1.5 -9.5t-5 -13t-2.5 -16.5q0 -8 0.5 -13t2 -9t6 -8.5l13.5 -13.5q8 -9 2 -13t-18 -4t-26.5 4t-23.5 13zM2229 1275q0 13 10 19q4 3 11 3q16 0 21.5 -4t5.5 -10t-2.5 -14t-2.5 -17q-12 0 -22 3q-8 2 -14.5 6.5t-6.5 13.5zM2163 1449
q-8 -7 -19 -19t-18.5 -24.5t-10.5 -24t5 -19.5q-1 -23 -6 -37q-5 -13 -13.5 -18t-25.5 12q-16 17 -31.5 32.5t-27.5 32t-19.5 33t-7.5 32.5v23q25 15 61.5 23.5t71.5 10.5t59.5 -2t24.5 -11q-8 -8 -15.5 -12.5t-13.5 -8.5t-10 -9t-4 -14zM1945 1341q32 0 44 -7t16.5 -17.5
t7.5 -21.5t19 -20q8 0 5.5 -7t-11 -17.5t-19 -21.5t-18.5 -20q-9 -7 -17 -5.5t-13 8.5q-7 7 -14 19q5 6 8 10q2 4 1 7.5t-9 3.5q-9 9 -16.5 6.5t-11.5 -8.5t-3 -12.5t8 -6.5q17 0 20 -13.5t3 -29.5q0 -7 -3 -13q-2 -7 -7 -15t-13 -16q-7 -17 -17.5 -25.5t-21.5 -12.5
q-12 -5 -25 -5q6 0 11 -3q4 -2 7.5 -7t3.5 -13q8 -8 9 -18.5t-1 -21.5q-3 -12 -8 -24q0 -9 -7.5 -9t-17.5 5.5t-21.5 18t-19.5 29.5q0 7 -3.5 8t-8.5 -1q-4 -2 -10 -7h-64q-23 -11 -29.5 -28t-5.5 -36t9 -36t15.5 -27.5t11.5 -13t-1 9.5q0 -9 7 -10t17 1.5t21 5.5t19 3
q8 7 19.5 11t22 4t17.5 -4t7 -11q8 -9 20 -16.5t24 -14t23 -10.5t20 -4q8 -8 19.5 -12.5t24 -8.5t24 -8.5t19.5 -12.5q8 -9 9 -21t-1 -23.5t-5 -23.5t-3 -21q-8 0 -12.5 -6.5t-8.5 -17t-9 -22t-13 -18.5q-9 -9 -14 -17t-9 -14t-8.5 -9.5t-12.5 -3.5q0 -8 -3.5 -12.5
t-8.5 -6.5q-5 -3 -11 -3v-65q6 -7 11 -14t8.5 -14.5t3.5 -15.5q8 -8 5.5 -22.5t-8.5 -29.5q-8 -18 -20 -36q-7 0 -11.5 0.5t-8.5 2.5t-9 6.5t-13 13.5t-12.5 14t-6.5 11t-2.5 15t-0.5 25q0 8 -6.5 16t-15 16.5t-15.5 17t-7 16.5q-9 0 -13 6.5t-6 14.5q-3 10 -3 22
q0 8 -6.5 16t-14.5 13q-10 7 -22 14q-12 6 -24 11q-11 5 -22.5 8.5t-19.5 3.5q0 7 -3.5 19t-7.5 24.5t-7.5 23.5t-3.5 20v87q13 6 20 10q6 4 8 7.5t-6 3.5q-8 8 -12.5 19.5t-6.5 22.5q-3 11 -3 24l-22 22q-6 6 -10 13q-4 6 -7 14t-3 17v44v43q40 106 93 173.5t99 106.5
q55 46 111 68v-65h-42q-8 0 -11 -4t3 -10t23.5 -14t49.5 -15zM507 99v-89h-88v89h88zM877 -76h-87v86h87v-86zM2316 99h86v-175h-86v175zM2686 -251h-2353q-58 0 -109.5 19.5t-90 54t-61.5 82.5t-23 105v1418q0 56 23 104.5t61.5 83t90 54t109.5 19.5h2353q57 0 105 -19.5
t82.5 -54t54 -83t19.5 -104.5v-1418q0 -57 -19.5 -105t-54 -82.5t-82.5 -54t-105 -19.5zM2229 -164h261v350h-261v-350zM1945 -164h87v350h-87v-350zM1508 -76h175v-88h88v350h-88v-87h-175v-175zM680 -164h284v263h-87v87h-197v-350zM333 10h86v-174h175v350h-261v-176z
M333 731h261v86h-349q0 -25 7 -41.5t20 -26t28.5 -14t32.5 -4.5zM245 905h174h22q-17 16 -19.5 35t-2.5 51h-174v-86zM333 1252q-17 0 -32.5 -7.5t-28.5 -19.5t-20 -27.5t-7 -31.5v-88h196q9 16 24.5 31.5t36 28.5t44 20.5t48.5 7.5v86h-261zM594 1078q-17 0 -32.5 -6.5
t-28 -19.5t-19.5 -28.5t-7 -32.5t7 -36t19.5 -34.5t28 -27t32.5 -11.5q24 0 41 11.5t27 27t14 34.5t4 36t-4 32.5t-14 28.5t-27 19.5t-41 6.5zM964 1252h-284v-86h371q0 16 -7 31.5t-20 27.5t-28.5 19.5t-31.5 7.5zM1051 1078h-304q8 -8 12 -19t6 -23.5t2.5 -24t0.5 -20.5
h283v87zM1051 905h-283q-8 -9 -16 -14t-14 -9t-10 -8.5t-4 -12.5q-7 0 -12 -3.5t-9 -7t-9 -7t-14 -3.5v-109h284q16 0 31.5 4.5t28.5 14t20 26t7 41.5v88zM1314 186h-88v-176h88v176zM1314 -76h-88v86h-88v-86h-87v-88h263v88zM2185 1603q-93 0 -179 -24.5t-161 -68
t-137.5 -104.5t-106.5 -133t-68.5 -154.5t-24.5 -170.5q0 -93 24.5 -179t68.5 -161.5t106.5 -136.5t137.5 -105.5t161 -69t179 -24.5t179 24.5t161.5 69t136.5 105.5t105.5 136.5t69 161.5t24.5 179q0 87 -23 170t-65.5 155t-103 133t-135.5 104.5t-162.5 68t-186.5 24.5z
M2751 882q-3 -45 -15 -86t-28 -76.5t-35 -66.5t-39 -57q-45 -61 -101 -106q-17 8 -22 19.5t-5 21.5q0 12 6 25v44l21 64q-1 24 -11 38q-8 13 -26 18t-49 -12q-33 -8 -48.5 -12t-26 -6t-22 -2.5t-34.5 -0.5q-17 0 -28 6t-19 17t-12.5 24.5t-6.5 28.5q-5 33 0 77v108
q0 8 8.5 13t22 8t31.5 4.5t35 1.5q44 0 100 -5q20 -16 36.5 -25t29 -12t22.5 -1.5t18 5.5q16 10 24 33l86 65l23 23l-66 64l-65 22q-17 -1 -27 -8q-8 -6 -10 -19.5t15 -38.5q-2 -12 -6 -21q-5 -8 -13 -15t-24 -7l-43 87q-7 -19 -17 -36q-8 -14 -20.5 -28.5t-28.5 -22.5
q-17 -8 -35.5 -9t-35.5 1q-19 3 -38 8q-6 36 -6 68q0 26 5.5 51t21.5 34l66 -22q-6 6 -9 13q-2 6 -1 14.5t10 15.5q0 16 4 19t10 3t13.5 2t15.5 19q17 9 30 0t25.5 -21t25.5 -20.5t29 -1.5q16 0 22 4t8 10t3.5 13.5t9.5 15.5q17 0 29.5 -7t20.5 -14q8 -10 15 -22l66 -21v64
q11 -17 21.5 -42t20 -55t16.5 -60t10.5 -56t3 -45t-6.5 -24h-21h-87l65 -43q6 -13 13 -22q6 -9 14.5 -16t15.5 -7zM2643 1275q8 0 12.5 -0.5t8 -2.5t8.5 -6.5t14 -13.5q-9 9 -14 13.5t-8.5 6.5t-8 2.5t-12.5 0.5zM2447 1275q-19 1 -31 6q-11 4 -16.5 12.5t2.5 25.5l22 65v65
q17 0 47 -16t62 -49q-8 -41 -22 -63t-29 -33q-17 -11 -35 -13zM2293 1275q-7 0 -5.5 10t8.5 23q7 15 20 33q0 5 3 10q2 4 6.5 7.5t11.5 3.5q8 0 9 -4t-1.5 -9.5t-5 -13t-2.5 -16.5q0 -8 0.5 -13t2 -9t6 -8.5l13.5 -13.5q8 -9 2 -13t-18 -4t-26.5 4t-23.5 13zM2229 1275
q0 13 10 19q4 3 11 3q16 0 21.5 -4t5.5 -10t-2.5 -14t-2.5 -17q-12 0 -22 3q-8 2 -14.5 6.5t-6.5 13.5zM2163 1449q-8 -7 -19 -19t-18.5 -24.5t-10.5 -24t5 -19.5q-1 -23 -6 -37q-5 -13 -13.5 -18t-25.5 12q-16 17 -31.5 32.5t-27.5 32t-19.5 33t-7.5 32.5v23
q25 15 61.5 23.5t71.5 10.5t59.5 -2t24.5 -11q-8 -8 -15.5 -12.5t-13.5 -8.5t-10 -9t-4 -14zM1945 1341q32 0 44 -7t16.5 -17.5t7.5 -21.5t19 -20q8 0 5.5 -7t-11 -17.5t-19 -21.5t-18.5 -20q-9 -7 -17 -5.5t-13 8.5q-7 7 -14 19q5 6 8 10q2 4 1 7.5t-9 3.5q-9 9 -16.5 6.5
t-11.5 -8.5t-3 -12.5t8 -6.5q17 0 20 -13.5t3 -29.5q0 -7 -3 -13q-2 -7 -7 -15t-13 -16q-7 -17 -17.5 -25.5t-21.5 -12.5q-12 -5 -25 -5q6 0 11 -3q4 -2 7.5 -7t3.5 -13q8 -8 9 -18.5t-1 -21.5q-3 -12 -8 -24q0 -9 -7.5 -9t-17.5 5.5t-21.5 18t-19.5 29.5q0 7 -3.5 8
t-8.5 -1q-4 -2 -10 -7h-64q-23 -11 -29.5 -28t-5.5 -36t9 -36t15.5 -27.5t11.5 -13t-1 9.5q0 -9 7 -10t17 1.5t21 5.5t19 3q8 7 19.5 11t22 4t17.5 -4t7 -11q8 -9 20 -16.5t24 -14t23 -10.5t20 -4q8 -8 19.5 -12.5t24 -8.5t24 -8.5t19.5 -12.5q8 -9 9 -21t-1 -23.5t-5 -23.5
t-3 -21q-8 0 -12.5 -6.5t-8.5 -17t-9 -22t-13 -18.5q-9 -9 -14 -17t-9 -14t-8.5 -9.5t-12.5 -3.5q0 -8 -3.5 -12.5t-8.5 -6.5q-5 -3 -11 -3v-65q6 -7 11 -14t8.5 -14.5t3.5 -15.5q8 -8 5.5 -22.5t-8.5 -29.5q-8 -18 -20 -36q-7 0 -11.5 0.5t-8.5 2.5t-9 6.5t-13 13.5
t-12.5 14t-6.5 11t-2.5 15t-0.5 25q0 8 -6.5 16t-15 16.5t-15.5 17t-7 16.5q-9 0 -13 6.5t-6 14.5q-3 10 -3 22q0 8 -6.5 16t-14.5 13q-10 7 -22 14q-12 6 -24 11q-11 5 -22.5 8.5t-19.5 3.5q0 7 -3.5 19t-7.5 24.5t-7.5 23.5t-3.5 20v87q13 6 20 10q6 4 8 7.5t-6 3.5
q-8 8 -12.5 19.5t-6.5 22.5q-3 11 -3 24l-22 22q-6 6 -10 13q-4 6 -7 14t-3 17v44v43q40 106 93 173.5t99 106.5q55 46 111 68v-65h-42q-8 0 -11 -4t3 -10t23.5 -14t49.5 -15zM507 99v-89h-88v89h88zM877 -76h-87v86h87v-86zM2316 99h86v-175h-86v175z" />
    <glyph glyph-name="uni200A" unicode="&#x200a;" horiz-adv-x="2041" 
d="M636 36v1678h938v-361v-72h451v-1245h-1389v0v0zM1827 1100h-992v-71h992v71v0v0zM1827 849h-992v-55h992v55v0v0zM1827 596h-992v-54h992v54v0v0zM1827 343h-992v-54h992v54v0v0zM1647 1714h36l342 -307v-54h-378v361v0v0zM582 -35h614h198v-253h-1389v1695h577v-613
h-379v-72h379v-180h-379v-73h379v-180h-379v-73h379v-180h-379v-71h379v0v0zM636 36v1678h938v-361v-72h451v-1245h-1389v0v0zM1827 1100h-992v-71h992v71v0v0zM1827 849h-992v-55h992v55v0v0zM1827 596h-992v-54h992v54v0v0zM1827 343h-992v-54h992v54v0v0zM1647 1714h36
l342 -307v-54h-378v361v0v0zM582 -35h614h198v-253h-1389v1695h577v-613h-379v-72h379v-180h-379v-73h379v-180h-379v-73h379v-180h-379v-71h379v0v0z" />
    <glyph glyph-name="uni202F" unicode="&#x202f;" horiz-adv-x="1984" 
d="M1473 469l-627 627l32 47l627 -627zM1312 324l-626 627l48 48l627 -627zM1168 164l-626 626l32 49l627 -627zM509 1208q-24 -24 -53 -36.5t-59 -12.5t-59.5 12.5t-53.5 36.5t-36.5 53t-12.5 59t12.5 59.5t36.5 53.5t53.5 36.5t59.5 12.5t59 -12.5t53 -36.5t36.5 -53.5
t12.5 -59.5t-12.5 -59t-36.5 -53zM960 1706l964 -932q24 -24 36 -58.5t12 -70.5t-12 -70.5t-36 -58.5l-723 -723q-30 -24 -65.5 -36t-71.5 -12t-71.5 12t-65.5 36l-916 901v819q0 36 14.5 71t40 62t61 43.5t77.5 16.5h756zM1473 469l-627 627l32 47l627 -627zM1312 324
l-626 627l48 48l627 -627zM1168 164l-626 626l32 49l627 -627zM509 1208q-24 -24 -53 -36.5t-59 -12.5t-59.5 12.5t-53.5 36.5t-36.5 53t-12.5 59t12.5 59.5t36.5 53.5t53.5 36.5t59.5 12.5t59 -12.5t53 -36.5t36.5 -53.5t12.5 -59.5t-12.5 -59t-36.5 -53zM960 1706
l964 -932q24 -24 36 -58.5t12 -70.5t-12 -70.5t-36 -58.5l-723 -723q-30 -24 -65.5 -36t-71.5 -12t-71.5 12t-65.5 36l-916 901v819q0 36 14.5 71t40 62t61 43.5t77.5 16.5h756z" />
    <glyph glyph-name="uni205F" unicode="&#x205f;" horiz-adv-x="2761" 
d="M2654 -286h-1938q-21 0 -35.5 12.5t-23.5 31.5t-12.5 42t-3.5 44v1145q0 20 3.5 31t12.5 16t23.5 6t35.5 1h1959q41 0 57 -15.5t16 -57.5v-1165q0 -42 -25.5 -66.5t-68.5 -24.5zM2527 -138q14 0 25 4.5t11 31.5q0 15 -2 17.5t-16 2.5q7 7 10.5 11t5 7t2 7t0.5 11
q0 14 -11 26t-25 12q-15 0 -26.5 -12t-11.5 -26h18h20h18q0 -14 -2 -16t-16 -2v-18q12 0 16 -10q2 -4 2 -10q0 -14 -2 -16t-16 -2q-15 0 -17.5 2t-2.5 16h-18q0 -27 11.5 -31.5t26.5 -4.5zM2379 -64h18v18h55l-55 -92h18l55 92v38h-91v-56zM2323 -82l-18 -56h18l38 56v36
q0 7 -0.5 13.5t-4 12t-11.5 9t-22 3.5t-25 -12t-11 -26q0 -27 11 -31.5t25 -4.5zM2102 -138q14 0 25.5 4.5t11.5 31.5q0 15 -2.5 17.5t-16.5 2.5l11 11t5.5 7t2 7t0.5 11q0 14 -11.5 26t-25.5 12t-21.5 -3.5t-11 -9t-4 -12t-0.5 -13.5h19h18h18q0 -7 -3 -10.5t-6 -5.5
q-4 -2 -9 -2v-18l18 -20q0 -7 -3 -10.5t-6 -5.5q-4 -2 -9 -2q-14 0 -16 2t-2 16h-39q0 -27 14.5 -31.5t42.5 -4.5zM1973 -138h36h18q0 7 3 11t6 7t6 7t3 11t-0.5 11.5t-2 8t-5 7.5t-10.5 11h-18h-36v18h54v38h-73v-74h19h36v-20v-18q-14 0 -25 2t-11 16h-19q0 -7 0.5 -11
t2 -7t5.5 -7zM1900 -138q14 0 25 4.5t11 31.5q0 15 -11 26.5t-25 11.5l18 56h-18l-39 -56v-38q0 -27 11.5 -31.5t27.5 -4.5zM1787 -138q29 0 42.5 4.5t13.5 31.5q0 15 -11.5 26.5t-26.5 11.5h-18l38 56h-38l-18 -56q0 -7 -3 -11t-6 -7.5t-6 -8t-3 -11.5q0 -27 11 -31.5
t25 -4.5zM1566 -82h18l-36 -56h18l37 56v36q0 7 -0.5 13.5t-4 12t-11 9t-21.5 3.5t-25.5 -12t-11.5 -26q0 -27 11.5 -31.5t25.5 -4.5zM1473 -138q14 0 25 4.5t11 31.5q0 15 -2 17.5t-16 2.5q7 7 10.5 11t5 7t2 7t0.5 11q0 14 -11 26t-25 12q-27 0 -31.5 -12t-4.5 -26h18h18
h18q0 -7 -3 -10.5t-6 -5.5q-4 -2 -9 -2h-18v-18h18q12 0 16 -10q2 -4 2 -10q0 -7 -3 -10.5t-6 -5.5q-4 -2 -9 -2q-14 0 -16 2t-2 16h-18q0 -27 11 -31.5t25 -4.5zM1364 -138q27 0 40.5 4.5t13.5 31.5q0 15 -11 26.5t-25 11.5h-18l36 56h-36l-21 -56q-7 -7 -10.5 -11t-5 -7.5
t-2 -8t-0.5 -11.5q0 -27 11.5 -31.5t27.5 -4.5zM1234 -64h18v18h37l-37 -92h18l37 92v38h-73v-56zM993 -102q0 -27 13.5 -31.5t41.5 -4.5q15 0 26.5 4.5t11.5 31.5v56q0 14 -11.5 26t-26.5 12q-28 0 -41.5 -12t-13.5 -26v-56zM901 -102q0 -27 11.5 -31.5t25.5 -4.5t25.5 4.5
t11.5 31.5v56q0 14 -11.5 26t-25.5 12t-25.5 -12t-11.5 -26v-56zM807 -102q0 -14 3.5 -21t9 -10.5t12.5 -4t14 -0.5q14 0 25 4.5t11 31.5v56q0 14 -11 26t-25 12t-26.5 -12t-12.5 -26v-56zM698 -102q0 -27 11 -31.5t25 -4.5q28 0 41.5 4.5t13.5 31.5v56q0 14 -13.5 26
t-41.5 12q-14 0 -25 -12t-11 -26v-56zM2636 655q0 15 -2 17.5t-16 2.5h-1902v-20v-257v-18h1902q14 0 16 2t2 16v257zM2654 -120h-36l36 38v36q0 14 -4.5 26t-31.5 12q-14 0 -25.5 -12t-11.5 -26h37h18v-18l-55 -56v-18h73v18zM734 -46h19v-56q0 -14 -2.5 -16t-16.5 -2v18
v56zM846 -46h18v-56q0 -14 -2 -16t-16 -2t-16 2t-2 16v56h18zM938 -46h18v-56q0 -14 -2 -16t-16 -2q-6 0 -10 2q-9 4 -9 16v56h19zM1048 -46h20v-56q0 -12 -10 -16q-4 -2 -10 -2q-14 0 -16 2t-2 16v56h18zM1364 -82q14 0 16 -2.5t2 -17.5q0 -14 -2 -16t-16 -2q-7 0 -11 2
q-10 4 -10 16q0 8 3 11.5t7 5.5t11 3zM1566 -46h18q0 -14 -2 -16t-16 -2q-5 0 -9 2q-9 4 -9 16h18zM1787 -82q14 0 16 -2.5t2 -17.5q0 -14 -2 -16t-16 -2v18v20zM1900 -82q14 0 16 -2.5t2 -17.5q0 -14 -2 -16t-16 -2q-16 0 -18.5 2t-2.5 16q0 15 2.5 17.5t18.5 2.5z
M2323 -46h18q0 -14 -2 -16t-16 -2q-5 0 -9 2q-9 4 -9 16h18zM1900 1339l-21 18l-590 -202h-648q-27 0 -47.5 -9t-34 -23t-20.5 -30t-7 -29v-169l-314 -110q-15 0 -17.5 -2t-2.5 -16l94 -221q0 -14 2 -16t16 -2l222 73v-647l-20 -18q-42 0 -78 16t-50 58l-352 997
q-27 85 57 111l1680 573q42 14 78.5 0t52.5 -57l165 -479h-111zM2654 -286h-1938q-21 0 -35.5 12.5t-23.5 31.5t-12.5 42t-3.5 44v1145q0 20 3.5 31t12.5 16t23.5 6t35.5 1h1959q41 0 57 -15.5t16 -57.5v-1165q0 -42 -25.5 -66.5t-68.5 -24.5zM2527 -138q14 0 25 4.5
t11 31.5q0 15 -2 17.5t-16 2.5q7 7 10.5 11t5 7t2 7t0.5 11q0 14 -11 26t-25 12q-15 0 -26.5 -12t-11.5 -26h18h20h18q0 -14 -2 -16t-16 -2v-18q12 0 16 -10q2 -4 2 -10q0 -14 -2 -16t-16 -2q-15 0 -17.5 2t-2.5 16h-18q0 -27 11.5 -31.5t26.5 -4.5zM2379 -64h18v18h55
l-55 -92h18l55 92v38h-91v-56zM2323 -82l-18 -56h18l38 56v36q0 7 -0.5 13.5t-4 12t-11.5 9t-22 3.5t-25 -12t-11 -26q0 -27 11 -31.5t25 -4.5zM2102 -138q14 0 25.5 4.5t11.5 31.5q0 15 -2.5 17.5t-16.5 2.5l11 11t5.5 7t2 7t0.5 11q0 14 -11.5 26t-25.5 12t-21.5 -3.5
t-11 -9t-4 -12t-0.5 -13.5h19h18h18q0 -7 -3 -10.5t-6 -5.5q-4 -2 -9 -2v-18l18 -20q0 -7 -3 -10.5t-6 -5.5q-4 -2 -9 -2q-14 0 -16 2t-2 16h-39q0 -27 14.5 -31.5t42.5 -4.5zM1973 -138h36h18q0 7 3 11t6 7t6 7t3 11t-0.5 11.5t-2 8t-5 7.5t-10.5 11h-18h-36v18h54v38h-73
v-74h19h36v-20v-18q-14 0 -25 2t-11 16h-19q0 -7 0.5 -11t2 -7t5.5 -7zM1900 -138q14 0 25 4.5t11 31.5q0 15 -11 26.5t-25 11.5l18 56h-18l-39 -56v-38q0 -27 11.5 -31.5t27.5 -4.5zM1787 -138q29 0 42.5 4.5t13.5 31.5q0 15 -11.5 26.5t-26.5 11.5h-18l38 56h-38l-18 -56
q0 -7 -3 -11t-6 -7.5t-6 -8t-3 -11.5q0 -27 11 -31.5t25 -4.5zM1566 -82h18l-36 -56h18l37 56v36q0 7 -0.5 13.5t-4 12t-11 9t-21.5 3.5t-25.5 -12t-11.5 -26q0 -27 11.5 -31.5t25.5 -4.5zM1473 -138q14 0 25 4.5t11 31.5q0 15 -2 17.5t-16 2.5q7 7 10.5 11t5 7t2 7t0.5 11
q0 14 -11 26t-25 12q-27 0 -31.5 -12t-4.5 -26h18h18h18q0 -7 -3 -10.5t-6 -5.5q-4 -2 -9 -2h-18v-18h18q12 0 16 -10q2 -4 2 -10q0 -7 -3 -10.5t-6 -5.5q-4 -2 -9 -2q-14 0 -16 2t-2 16h-18q0 -27 11 -31.5t25 -4.5zM1364 -138q27 0 40.5 4.5t13.5 31.5q0 15 -11 26.5
t-25 11.5h-18l36 56h-36l-21 -56q-7 -7 -10.5 -11t-5 -7.5t-2 -8t-0.5 -11.5q0 -27 11.5 -31.5t27.5 -4.5zM1234 -64h18v18h37l-37 -92h18l37 92v38h-73v-56zM993 -102q0 -27 13.5 -31.5t41.5 -4.5q15 0 26.5 4.5t11.5 31.5v56q0 14 -11.5 26t-26.5 12q-28 0 -41.5 -12
t-13.5 -26v-56zM901 -102q0 -27 11.5 -31.5t25.5 -4.5t25.5 4.5t11.5 31.5v56q0 14 -11.5 26t-25.5 12t-25.5 -12t-11.5 -26v-56zM807 -102q0 -14 3.5 -21t9 -10.5t12.5 -4t14 -0.5q14 0 25 4.5t11 31.5v56q0 14 -11 26t-25 12t-26.5 -12t-12.5 -26v-56zM698 -102
q0 -27 11 -31.5t25 -4.5q28 0 41.5 4.5t13.5 31.5v56q0 14 -13.5 26t-41.5 12q-14 0 -25 -12t-11 -26v-56zM2636 655q0 15 -2 17.5t-16 2.5h-1902v-20v-257v-18h1902q14 0 16 2t2 16v257zM2654 -120h-36l36 38v36q0 14 -4.5 26t-31.5 12q-14 0 -25.5 -12t-11.5 -26h37h18
v-18l-55 -56v-18h73v18zM734 -46h19v-56q0 -14 -2.5 -16t-16.5 -2v18v56zM846 -46h18v-56q0 -14 -2 -16t-16 -2t-16 2t-2 16v56h18zM938 -46h18v-56q0 -14 -2 -16t-16 -2q-6 0 -10 2q-9 4 -9 16v56h19zM1048 -46h20v-56q0 -12 -10 -16q-4 -2 -10 -2q-14 0 -16 2t-2 16v56h18
zM1364 -82q14 0 16 -2.5t2 -17.5q0 -14 -2 -16t-16 -2q-7 0 -11 2q-10 4 -10 16q0 8 3 11.5t7 5.5t11 3zM1566 -46h18q0 -14 -2 -16t-16 -2q-5 0 -9 2q-9 4 -9 16h18zM1787 -82q14 0 16 -2.5t2 -17.5q0 -14 -2 -16t-16 -2v18v20zM1900 -82q14 0 16 -2.5t2 -17.5
q0 -14 -2 -16t-16 -2q-16 0 -18.5 2t-2.5 16q0 15 2.5 17.5t18.5 2.5zM2323 -46h18q0 -14 -2 -16t-16 -2q-5 0 -9 2q-9 4 -9 16h18zM1900 1339l-21 18l-590 -202h-648q-27 0 -47.5 -9t-34 -23t-20.5 -30t-7 -29v-169l-314 -110q-15 0 -17.5 -2t-2.5 -16l94 -221q0 -14 2 -16
t16 -2l222 73v-647l-20 -18q-42 0 -78 16t-50 58l-352 997q-27 85 57 111l1680 573q42 14 78.5 0t52.5 -57l165 -479h-111z" />
    <glyph glyph-name="uniF003" unicode="&#xf003;" horiz-adv-x="2168" 
d="M1100 28l-1005 1354h243l762 -1058l729 1058h243zM1100 621l-520 761h244l276 -423l244 423h242zM1100 28l-1005 1354h243l762 -1058l729 1058h243zM1100 621l-520 761h244l276 -423l244 423h242z" />
    <glyph glyph-name="uniF004" unicode="&#xf004;" horiz-adv-x="1998" 
d="M990 184l-919 918l5 5h352l562 -562l563 562h350l6 -5z" />
    <glyph glyph-name="uniF005" unicode="&#xf005;" horiz-adv-x="2015" 
d="M990 1106l919 -918l-5 -5h-352l-562 562l-563 -562h-350l-6 5z" />
    <glyph glyph-name="uniF006" unicode="&#xf006;" horiz-adv-x="1872" 
d="M1639 -222h-1399q-31 0 -63.5 13.5t-59 37.5t-43.5 56.5t-17 69.5v827q0 37 17 72.5t43.5 63t59 44.5t63.5 17h202v198q0 103 39 193t105.5 156.5t155 104.5t187.5 38q106 0 199 -38t161 -104.5t107.5 -156.5t39.5 -193v-198h203q30 0 59.5 -17t52 -44.5t36.5 -63
t14 -72.5v-827q0 -37 -14 -69.5t-36.5 -56.5t-52 -37.5t-59.5 -13.5zM1213 1177q0 59 -21.5 109.5t-59.5 87t-90 57.5t-113 21q-53 0 -101 -21t-84 -57.5t-57.5 -87t-21.5 -109.5v-198h548v198zM1639 -222h-1399q-31 0 -63.5 13.5t-59 37.5t-43.5 56.5t-17 69.5v827
q0 37 17 72.5t43.5 63t59 44.5t63.5 17h202v198q0 103 39 193t105.5 156.5t155 104.5t187.5 38q106 0 199 -38t161 -104.5t107.5 -156.5t39.5 -193v-198h203q30 0 59.5 -17t52 -44.5t36.5 -63t14 -72.5v-827q0 -37 -14 -69.5t-36.5 -56.5t-52 -37.5t-59.5 -13.5zM1213 1177
q0 59 -21.5 109.5t-59.5 87t-90 57.5t-113 21q-53 0 -101 -21t-84 -57.5t-57.5 -87t-21.5 -109.5v-198h548v198z" />
    <glyph glyph-name="uniF007" unicode="&#xf007;" horiz-adv-x="1855" 
d="M1626 -200h-1398q-31 0 -63.5 13.5t-59 37t-43.5 55.5t-17 68v828q0 36 17 68t43.5 55.5t59 37t63.5 13.5h202v214q0 101 39 188.5t105.5 152.5t154.5 102.5t187 37.5q107 0 199.5 -37.5t161 -102.5t108 -152.5t39.5 -188.5v-214h202q30 0 59.5 -13.5t52.5 -37t37 -55.5
t14 -68v-828q0 -36 -14 -68t-37 -55.5t-52.5 -37t-59.5 -13.5zM1201 1190q0 50 -22 98t-60 86t-90 61.5t-113 23.5q-53 0 -100.5 -23.5t-83.5 -61.5t-57.5 -86t-21.5 -98v-214h548v214zM1404 669q-15 14 -33 21t-35 7t-31.5 -7t-22.5 -21l-425 -369l-204 195q-31 14 -71 14
t-71 -14q-31 -30 -31 -68t31 -69l285 -251q15 -14 30.5 -25.5t30.5 -11.5q31 0 47.5 11.5t31.5 25.5l468 444q60 58 0 118zM1626 -200h-1398q-31 0 -63.5 13.5t-59 37t-43.5 55.5t-17 68v828q0 36 17 68t43.5 55.5t59 37t63.5 13.5h202v214q0 101 39 188.5t105.5 152.5
t154.5 102.5t187 37.5q107 0 199.5 -37.5t161 -102.5t108 -152.5t39.5 -188.5v-214h202q30 0 59.5 -13.5t52.5 -37t37 -55.5t14 -68v-828q0 -36 -14 -68t-37 -55.5t-52.5 -37t-59.5 -13.5zM1201 1190q0 50 -22 98t-60 86t-90 61.5t-113 23.5q-53 0 -100.5 -23.5t-83.5 -61.5
t-57.5 -86t-21.5 -98v-214h548v214zM1404 669q-15 14 -33 21t-35 7t-31.5 -7t-22.5 -21l-425 -369l-204 195q-31 14 -71 14t-71 -14q-31 -30 -31 -68t31 -69l285 -251q15 -14 30.5 -25.5t30.5 -11.5q31 0 47.5 11.5t31.5 25.5l468 444q60 58 0 118z" />
    <glyph glyph-name="uniF008" unicode="&#xf008;" horiz-adv-x="4615" 
d="M4375 1716q2 -45 16 -86t38 -74t56.5 -56.5t70.5 -33.5v-57v-1342v-72q-37 -9 -69 -30.5t-56 -53t-38.5 -70.5t-17.5 -82h-4320v94q26 32 37 65q9 29 4.5 62t-41.5 65v46q26 32 37 65q4 14 6 30t-1.5 32.5t-13.5 33t-28 31.5v66q26 29 37 62q4 14 6 30t-1.5 34t-13.5 37
t-28 38v85q26 33 37 67q4 15 6 31t-1.5 33.5t-13.5 34.5t-28 34q-3 3 -3.5 17t0.5 30q1 18 3 41q22 30 31 62q8 27 4 58.5t-35 60.5v96q24 25 34 54q8 25 4 58t-38 69v83q20 26 28 53q7 23 3.5 50.5t-31.5 52.5v96h4320zM3716 17q51 0 96 18.5t78.5 50t53 74t19.5 90.5v975
q0 48 -19.5 91t-53 75.5t-78.5 51t-96 18.5h-2824q-50 0 -95 -18.5t-79 -51t-53.5 -75.5t-19.5 -91v-975q0 -48 19.5 -90.5t53.5 -74t79 -50t95 -18.5h2824v0zM3716 1381q34 0 64 -12t52.5 -33t35.5 -49.5t13 -61.5v-975q0 -32 -13 -60.5t-35.5 -49.5t-52.5 -33.5t-64 -12.5
h-2824q-34 0 -63.5 12.5t-52 33.5t-35.5 49.5t-13 60.5v975q0 33 13 61.5t35.5 49.5t52 33t63.5 12h2824zM1222 877h189v39h-189v78h-44v-78h-186v-39h186v-60h-156v-158h152q-8 -70 -29 -100q-20 18 -36.5 36.5t-30.5 41.5l-38 -21q31 -48 74 -90q-24 -20 -58 -36.5
t-82 -31.5l30 -40q95 37 150 81q88 -56 230 -74q8 11 16.5 22.5t17.5 25.5q-144 8 -235 62q29 41 36 124h117v-28h46v186h-160v60zM1178 778v-81h-112v81h112zM1222 778h114v-81h-114v81zM947 838q16 33 28 69t26 75l-42 15q-23 -84 -54 -154t-69 -131q5 -11 9.5 -22
t9.5 -23q13 21 26.5 41t26.5 43v-329h39v416zM1911 427q67 0 67 72v462h-477v-207q0 -59 -2 -103.5t-10 -76.5q-7 -32 -19.5 -60.5t-30.5 -55.5q9 -12 17.5 -23t14.5 -20q32 42 49 91t23 110h167v-186h49v186h171v-108q0 -33 -36 -33q-16 0 -36.5 1.5t-47.5 1.5q5 -13 7 -26
t2 -22q27 0 49.5 -1.5t42.5 -1.5zM1710 811h-161v107h161v-107zM1710 659h-163q2 27 2 54v56h161v-110zM1930 811h-171v107h171v-107zM1930 659h-171v110h171v-110zM2439 793h159v45h-234q2 33 2.5 71.5t0.5 80.5h-47v-152h-129v-45h125q-5 -100 -41 -180.5t-108 -149.5
l18 -18t18 -20q76 74 116 166.5t42 201.5h30v-275q0 -42 15 -57q18 -15 60 -15h45q20 -3 35.5 1t24.5 11q9 9 15.5 21t8.5 32q5 18 7.5 40.5t4.5 47.5q-11 6 -22.5 10.5t-25.5 6.5q0 -27 -2 -49t-4 -37q-5 -43 -46 -43h-34q-34 0 -34 33v273zM2425 952q24 -18 48.5 -38
t49.5 -43q7 11 15 20.5t15 18.5q-20 18 -46.5 36.5t-57.5 38.5l-24 -33v0zM2152 829q15 34 30.5 71.5t32.5 77.5l-48 16q-26 -77 -60 -146t-79 -129q5 -14 10.5 -27t8.5 -25q16 18 31 38.5t29 42.5v-323h45v404zM3059 667q9 -13 22 -18q-36 -2 -72 -2h-72v44h206v180h-206
v39h254v39h-254v48h-42v-48h-255v-39h255v-39h-207v-192h42v12h165v-48h-255l6 -41q322 8 473 12q11 -11 22 -23t20 -23l36 27q-23 23 -49.5 46t-58.5 50zM2895 799h-165v39h165v-39zM2895 727h-165v39h165v-39zM3105 799h-168v39h168v-39zM2937 727v39h168v-39h-168z
M2684 580q-11 -32 -24 -59t-29 -51q9 -5 19.5 -11t19.5 -10q14 25 28.5 53.5t28.5 63.5zM2871 580q18 -18 34 -36l32 -36l36 27q-29 32 -69 69zM2813 580h-45v-69q0 -72 76 -72h141q33 0 51.5 13.5t25.5 37.5q2 12 5.5 25t3.5 29q-18 9 -28.5 12.5t-13.5 5.5l-4 -30t-4 -26
q-3 -14 -14 -19t-31 -5h-124q-39 0 -39 32v66zM3203 484q-23 27 -42.5 49.5t-35.5 40.5l-32 -24q22 -27 41 -49.5t33 -42.5l36 26v0zM3802 673q-51 9 -92 30.5t-76 53.5h163v42h-328q9 14 17.5 27t13.5 27h266v39h-122l37.5 37.5t33.5 31.5l-38 29q-14 -18 -30.5 -36
t-36.5 -36l27 -26h-120q17 43 31 98l-45 7q-8 -27 -16.5 -53.5t-17.5 -51.5h-89l27 33q-16 16 -35.5 31.5t-39.5 33.5l-30 -32l36 -32t36 -34h-111v-39h189q-7 -14 -16 -28.5t-20 -25.5h-189v-42h153q-32 -32 -70.5 -56.5t-88.5 -45.5q10 -9 19 -18.5t18 -20.5
q58 32 103.5 67.5t81.5 73.5h141q34 -45 80.5 -77t105.5 -52q6 11 14.5 22.5t17.5 22.5zM3443 614q-36 -108 -197 -156q6 -12 12.5 -21.5t13.5 -18.5q180 60 216 196h161q-2 -27 -3 -51.5t-5 -42.5q-6 -45 -55 -45q-22 0 -49 1.5t-61 1.5q2 -11 4 -22.5t5 -25.5h104
q88 0 96 84q3 21 5 56t4 82h-197q5 34 8 72h-44q-3 -20 -5 -38t-4 -34h-126v-38h117v0z" />
    <glyph glyph-name="uniF009" unicode="&#xf009;" horiz-adv-x="4607" 
d="M4375 1716q2 -45 16 -86t38 -74t56.5 -56.5t70.5 -33.5v-57v-1342v-72q-37 -9 -69 -30.5t-56 -53t-38.5 -70.5t-17.5 -82h-4320v94q26 32 37 65q9 29 4.5 62t-41.5 65v46q26 32 37 65q4 14 6 30t-1.5 32.5t-13.5 33t-28 31.5v66q26 29 37 62q4 14 6 30t-1.5 34t-13.5 37
t-28 38v85q26 33 37 67q4 15 6 31t-1.5 33.5t-13.5 34.5t-28 34q-3 3 -3.5 17t0.5 30q1 18 3 41q22 30 31 62q8 27 4 58.5t-35 60.5v96q24 25 34 54q8 25 4 58t-38 69v83q20 26 28 53q7 23 3.5 50.5t-31.5 52.5v96h4320zM3716 17q51 0 96 18.5t78.5 50t53 74t19.5 90.5v975
q0 48 -19.5 91t-53 75.5t-78.5 51t-96 18.5h-2824q-50 0 -95 -18.5t-79 -51t-53.5 -75.5t-19.5 -91v-975q0 -48 19.5 -90.5t53.5 -74t79 -50t95 -18.5h2824v0zM3716 1381q34 0 64 -12t52.5 -33t35.5 -49.5t13 -61.5v-975q0 -32 -13 -60.5t-35.5 -49.5t-52.5 -33.5t-64 -12.5
h-2824q-34 0 -63.5 12.5t-52 33.5t-35.5 49.5t-13 60.5v975q0 33 13 61.5t35.5 49.5t52 33t63.5 12h2824zM1972 507q11 37 18 99q-14 2 -28 7.5t-28 10.5q0 -32 -4 -56t-8 -43q-8 -17 -22.5 -27t-42.5 -10h-298q-26 0 -37 14.5t-11 42.5v174h359v-39h52v276h-486v-42h434
v-153h-359v83h-51v-313q0 -92 87 -92h323q81 0 102 68zM2413 875h195v39h-195v82h-47v-82h-192v-39h192v-60h-163v-163h156q-2 -35 -9.5 -58.5t-15.5 -40.5q-42 33 -72 80l-40 -22q32 -53 77 -92q-23 -20 -59.5 -36.5t-84.5 -31.5q8 -12 14.5 -21.5t13.5 -19.5
q52 19 91.5 39t65.5 44q47 -32 107 -51.5t132 -28.5q8 15 16.5 26.5t18.5 21.5q-74 8 -136 22t-108 42h4q23 44 37 127h119v-26h48v189h-165v60zM2366 777v-87h-117v87h117zM2413 777h117v-87h-117v87zM2128 837q15 36 28 71.5t24 74.5l-43 16q-43 -170 -127 -291
q6 -11 11 -23l10 -24q14 20 27 42.5t27 44.5v-338h43v427zM3125 420q31 0 49 17.5t18 50.5v474h-492v-214q0 -58 -3 -102.5t-8 -76.5q-15 -70 -56 -121q11 -11 20.5 -21.5t16.5 -22.5q30 41 48 93.5t23 113.5h176v-188h51v188h176v-109q0 -18 -10.5 -28t-27.5 -10t-38 2.5
t-49 4.5q5 -15 7.5 -27.5t6.5 -23.5h92v0zM2917 807h-166v110h166v-110zM2917 654h-169q2 27 2.5 55.5t0.5 54.5h166v-110zM3144 807h-176v110h176v-110zM3144 654h-176v110h176v-110z" />
    <glyph glyph-name="uniF00A" unicode="&#xf00a;" horiz-adv-x="2239" 
d="M296 717q32 0 63.5 -4t63 -11.5t64 -18.5t67.5 -23q19 30 33.5 64t25.5 73h-345v37h177v92h-230v37h230v86q0 6 1.5 9t6.5 6q1 1 7 1h97v-102h218v-37h-218v-92h176q-30 -117 -87 -208q48 -17 101.5 -34.5t118.5 -33.5v293q-25 -16 -53.5 -28.5t-54.5 -18.5q-1 0 -2 2
q-1 0 -1 1q-1 0 -1 2q0 3 2 5q30 27 54 57.5t41.5 61t29 61.5t17.5 59l0.5 2t2.5 4t5 4t7 2h100q-5 -18 -9 -33t-10 -28t-13 -25.5t-14 -26.5v-417q61 -12 129.5 -20.5t148.5 -14.5v388h-255v38h255v127q2 9 9 12h3.5h4.5h88v-139h62v-38h-62v-394q73 -3 152 -1t168 8v204
h-204v38h204v91h-231v38h85h28h312h141v-38h-221v-91h194v-38h-194v-195q91 8 189.5 22t208.5 31q1 0 -5 -11.5t-17 -28t-26 -35t-29.5 -35.5t-28 -29t-21.5 -15q-161 -19 -299.5 -28.5t-258.5 -9.5t-221 7.5t-187 21t-158 31.5t-132.5 38t-111.5 41.5t-95 42.5
q-32 -37 -68 -67t-75.5 -50.5t-81.5 -31t-85 -10.5q-33 0 -61.5 7t-52.5 19t-43 27.5t-31 33.5l3 -3q-16 24 -22 51.5t-1 54t21.5 50.5t44 42.5t66.5 29.5t90 11zM264 456q33 0 66 9t64 27t60 44t56 59q-33 16 -62 29.5t-57.5 23.5t-57 15t-57.5 5q-44 0 -79 -10.5
t-60 -28.5q-16 -17 -23.5 -36t-5.5 -38t13 -36.5t30 -31.5t47 -22.5t66 -8.5zM1035 767q0 3 1 7q25 43 68 68q3 2 8 2q1 0 3 -0.5t4 -0.5q43 -26 68 -69q2 -4 1 -7q0 -3 -0.5 -4.5t-0.5 -3.5q-25 -43 -68 -67q-3 -2 -7 -2q-6 0 -8 2q-21 12 -38 29t-30 38q-1 2 -1 3.5v4.5z
M1439 893v91q0 3 0.5 7t2.5 8q3 5 8 10t14 5h206v42q0 9 9 15q2 1 6 1h99v-58h188q21 0 32.5 -14.5t10.5 -39.5q-1 -7 -2.5 -16.5t-2.5 -18.5t-2.5 -17.5t-2.5 -14.5h-107q4 15 5 27.5t3 22.5l1 18q0 4 -4 8.5t-15 4.5h-321q-6 0 -9.5 -1.5t-6.5 -4.5t-2 -9v-66h-110z
M1869 619q0 1 0.5 2.5t1.5 3.5q18 32 51 50q3 3 6 2h2.5t2.5 -1q33 -20 51 -51q1 -2 1 -6q0 -2 -0.5 -3.5t-0.5 -2.5q-18 -33 -51 -50q-2 -2 -5 -2t-6 2q-33 17 -51 50q-1 2 -1.5 3.5t-0.5 2.5zM2039 1072v7h43v-7h-18v-47h-7v47h-18zM2089 1025v54h11l15 -46l16 46h10v-54
h-7v45l-15 -45h-7l-16 46v-46h-7z" />
    <glyph glyph-name="uniF00B" unicode="&#xf00b;" horiz-adv-x="2459" 
d="M2262 -228h-2057q-23 0 -48.5 11t-46.5 30t-34.5 45t-13.5 57v1161h2343v-1161q0 -31 -11 -57t-30 -45t-45 -30t-57 -11zM205 139h814v143h-814v-143zM1162 648h-957v-142h957v142zM1447 648h-203v-142h203v142zM62 1524q0 31 13.5 57t34.5 45t46.5 30t48.5 11h2057
q31 0 57 -11t45 -30t30 -45t11 -57v-224h-2343v224zM1668 658v-569h431v569h-103v-446h-218v446h-110z" />
    <glyph glyph-name="uniF00C" unicode="&#xf00c;" horiz-adv-x="2384" 
d="M166 55v830h2051v-830q0 -41 -14 -76.5t-39.5 -62.5t-59 -42.5t-71.5 -15.5h-1682q-38 0 -71.5 15.5t-59 42.5t-40 62.5t-14.5 76.5zM166 1181v220q0 41 14.5 77t40 63t59 42.5t71.5 15.5h1682q38 0 71.5 -15.5t59 -42.5t39.5 -63t14 -77v-220h-2051zM1462 161h152v186
h-152v-186zM1649 161h152v186h-152v-186zM1845 161h152v186h-152v-186z" />
    <glyph glyph-name="uniF00D" unicode="&#xf00d;" horiz-adv-x="2429" 
d="M2224 -225h-2015q-30 0 -56 10.5t-45 29.5t-29.5 45t-10.5 56v1169h2297v-1169q0 -30 -11 -56t-29.5 -45t-44.5 -29.5t-56 -10.5zM209 138h786v141h-786v-141zM1136 641h-927v-141h927v141zM1438 641h-221v-141h221v141zM68 1508q0 30 10.5 56t29.5 45t45 29.5t56 10.5
h2015q30 0 56 -10.5t44.5 -29.5t29.5 -45t11 -56v-222h-2297v222z" />
    <glyph glyph-name="uniF00E" unicode="&#xf00e;" horiz-adv-x="2081" 
d="M413 1053q42 299 207.5 449.5t456.5 146.5q308 -4 463 -122.5t166 -345.5q14 -253 -298 -486q-96 -71 -141 -145.5t-45 -151.5v-77h-384v102q0 124 57.5 223.5t181.5 185.5q110 76 162.5 160.5t49.5 171.5q-4 110 -57 170t-155 60q-116 0 -185 -87t-96 -254h-383v0z
M831 192h417v-398h-417v398z" />
    <glyph glyph-name="uniF010" unicode="&#xf010;" horiz-adv-x="2538" 
d="M136 -102v1629q0 33 23 56t56 23h1602l-310 -239h-1132v-1309h1308v520l239 248v-928q0 -33 -22.5 -56t-56.5 -23h-1628q-33 0 -56 23t-23 56zM514 851l375 295l320 -301q48 41 96 80.5t94.5 76.5t89 70.5t80.5 63.5q88 69 169 128q83 59 176 125q79 55 180 124t209 136
l99 -132q-30 -17 -66.5 -45.5t-77 -62.5t-82.5 -72.5t-81 -75.5q-93 -88 -192 -187q-107 -111 -228 -248q-103 -118 -231.5 -275.5t-262.5 -344.5z" />
    <glyph glyph-name="uniF011" unicode="&#xf011;" horiz-adv-x="1878" 
d="M38 1080v279q0 9 6.5 16.5t17.5 7.5h443q10 0 17 7.5t7 17.5v279q0 10 7.5 17.5t17.5 7.5h772q9 0 16.5 -7.5t7.5 -17.5v-279q0 -10 7.5 -17.5t17.5 -7.5h441q10 0 17.5 -7.5t7.5 -16.5v-279q0 -10 -7.5 -17t-17.5 -7h-117q-9 0 -16.5 -7.5t-7.5 -17.5v-1261
q0 -10 -7 -16.5t-18 -6.5h-1425q-9 0 -16.5 6.5t-7.5 16.5v1261q0 10 -7.5 17.5t-16.5 7.5h-115q-10 0 -17 7t-7 17zM362 -69q0 -10 7.5 -17.5t17.5 -7.5h1102q10 0 17.5 7.5t7.5 17.5v1100q0 10 -7.5 17.5t-17.5 7.5h-1102q-10 0 -17.5 -7.5t-7.5 -17.5v-1100zM531 -62v932
q0 10 7.5 17t18.5 7h112q10 0 17.5 -7t7.5 -17v-932q0 -10 -7.5 -17t-17.5 -7h-112q-10 0 -18 7t-8 17zM694 1408q0 -10 7.5 -17.5t16.5 -7.5h443q10 0 17.5 7.5t7.5 17.5v119q0 10 -7.5 17t-17.5 7h-443q-9 0 -16.5 -7t-7.5 -17v-119zM857 -62v932q0 10 7.5 17t17.5 7h112
q10 0 17.5 -7t7.5 -17v-932q0 -10 -7 -17t-18 -7h-112q-10 0 -17.5 7t-7.5 17zM1183 -62v932q0 10 7.5 17t17.5 7h112q10 0 17.5 -7t7.5 -17v-932q0 -10 -7.5 -17t-17.5 -7h-112q-10 0 -17.5 7t-7.5 17z" />
    <glyph glyph-name="uniF012" unicode="&#xf012;" horiz-adv-x="2293" 
d="M2152 -238h-1992q-22 0 -42.5 7t-36.5 19.5t-26 30.5t-10 39v1724q0 15 10 31.5t26 31t36.5 24t42.5 9.5h1992q15 0 31.5 -9.5t31 -24t24 -31t9.5 -31.5v-1724q0 -21 -9.5 -39t-24 -30.5t-31 -19.5t-31.5 -7zM256 1582q-21 0 -39 -10t-30.5 -26t-19.5 -37t-7 -42
q0 -43 26.5 -69t69.5 -26t69 26t26 69q0 21 -7 42t-19.5 37t-30 26t-38.5 10zM562 1582q-21 0 -39 -10t-30.5 -26t-19.5 -37t-7 -42q0 -43 26.5 -69t69.5 -26q22 0 42.5 7t36.5 19.5t26 30t10 38.5t-10 42t-26 37t-36.5 26t-42.5 10zM869 1582q-21 0 -39 -10t-30.5 -26
t-19.5 -37t-7 -42q0 -43 26.5 -69t69.5 -26q22 0 42.5 7t36.5 19.5t26 30t10 38.5t-10 42t-26 37t-36.5 26t-42.5 10zM2152 1257h-115h-1781h-96v-1399h1992v1399z" />
    <glyph glyph-name="uniF013" unicode="&#xf013;" horiz-adv-x="2442" 
d="M548 383h-204q6 -69 89 -69q26 0 47 6t40 20v-67q-40 -23 -108 -23q-36 0 -65 9.5t-49 31.5q-22 21 -31.5 50t-9.5 65q0 38 11.5 67t32.5 52q22 24 48.5 34.5t60.5 10.5q64 0 101 -40q17 -18 27 -45.5t10 -62.5v-39zM463 440q0 71 -57 71q-9 0 -19.5 -5.5t-17.5 -12.5
q-11 -11 -16.5 -24t-8.5 -29h119zM836 269q-17 -11 -39 -15t-53 -4q-36 0 -63.5 10.5t-50.5 30.5q-42 45 -42 112q0 77 47 122q23 24 54 34.5t69 10.5q26 0 45.5 -2.5t32.5 -10.5v-78q-30 23 -67 23q-22 0 -38 -5.5t-30 -19.5q-11 -12 -17 -29t-6 -38q0 -22 6 -39t17 -29
q23 -23 66 -23q34 0 69 21v-71zM989 292v-177h-90v447h90v-44q33 52 101 52q60 0 90 -40q18 -21 26 -48t8 -62q0 -78 -38 -124q-39 -46 -101 -46q-55 0 -86 42zM987 394q0 -18 5 -31t12 -23q11 -12 22.5 -16.5t25.5 -4.5q17 0 30 6t21 21q10 11 14 29.5t4 41.5q0 85 -64 85
q-30 0 -50 -23q-9 -11 -14.5 -26.5t-5.5 -32.5v-26zM1348 483q-73 29 -73 97q0 26 10.5 46.5t29.5 37.5q41 30 101 30q29 0 54 -7.5t45 -20.5q19 -17 27 -36t8 -44q0 -69 -80 -103q22 -8 39 -18.5t29 -26.5q14 -14 19.5 -31t5.5 -37q0 -59 -44 -87q-21 -18 -50 -25.5
t-64 -7.5q-31 0 -57 7t-46 23q-41 32 -41 85q0 79 87 114v4zM1408 445q-32 -11 -46.5 -30t-14.5 -45q0 -25 19 -39q20 -17 47 -17q28 0 47 16q8 8 13 17.5t5 22.5q0 26 -17.5 45t-52.5 30zM1467 580q0 10 -4 19.5t-12 16.5q-14 14 -38 14q-21 0 -36 -16q-10 -5 -14 -14.5
t-4 -20.5q0 -42 54 -66q54 23 54 67zM1700 483q-74 28 -74 97q0 52 38 84q44 30 101 30q29 0 54 -7.5t45 -20.5q38 -32 38 -80q0 -68 -83 -103q24 -8 40.5 -18.5t30.5 -26.5q23 -28 23 -68q0 -60 -42 -87q-23 -18 -51.5 -25.5t-64.5 -7.5q-63 0 -103 30q-40 32 -40 85
q0 80 88 114v4zM1760 445q-33 -11 -47.5 -30t-14.5 -45q0 -12 4 -22t14 -17q18 -17 47 -17q15 0 25.5 4t20.5 12t13.5 17.5t3.5 22.5q0 26 -15.5 45t-50.5 30zM1817 580q0 21 -15 36q-12 14 -37 14q-23 0 -39 -16q-8 -5 -11.5 -14.5t-3.5 -20.5q0 -42 52 -66q54 24 54 67z
M2050 483q-75 29 -75 97q0 26 9.5 46.5t31.5 37.5q20 14 44.5 22t53.5 8q31 0 56 -7.5t42 -20.5q39 -33 39 -80q0 -35 -19 -60.5t-61 -42.5q22 -8 39 -18.5t28 -26.5q12 -14 19.5 -31t7.5 -37q0 -59 -45 -87q-21 -18 -50 -25.5t-66 -7.5q-63 0 -102 30q-40 31 -40 85
q0 80 88 114v4zM2109 445q-32 -11 -47 -30t-15 -45q0 -12 4 -22t15 -17q17 -17 46 -17q31 0 46 16q21 16 21 40q0 26 -17.5 45t-52.5 30zM2169 580q0 10 -4.5 19.5t-11.5 16.5q-16 14 -39 14t-39 -16q-15 -12 -15 -35q0 -42 54 -66q26 12 40.5 28t14.5 39zM68 1508
q0 30 10.5 56t29.5 45t45 29.5t56 10.5h2015q30 0 56 -10.5t44.5 -29.5t29.5 -45t11 -56v-222h-2297v222zM72 1100v-1190q-2 -40 11 -71q6 -13 15.5 -25.5t24.5 -22t36.5 -15t50.5 -4.5h2027q42 4 74 21q27 14 48 42t16 78v1187h-2303z" />
    <glyph glyph-name="uniF018" unicode="&#xf018;" horiz-adv-x="3161" 
d="M655 1677h2310q40 0 72 -15.5t52 -41.5t26 -61.5t-4 -75.5l-352 -1519q-9 -40 -32 -75.5t-55.5 -61.5t-71 -41.5t-78.5 -15.5h-2314q-39 0 -70 15.5t-51 41.5t-27 61.5t2 75.5l356 1519q9 40 32 75.5t55.5 61.5t71 41.5t78.5 15.5zM956 1143q0 -2 -2 -13.5t-5.5 -28
t-8 -37t-8.5 -41.5q-11 -49 -24 -110q-8 -32 -16.5 -56.5t-26.5 -42.5q-12 -5 -24.5 -10t-27.5 -5q-45 0 -51 47v8l8 59q14 55 26 102q11 40 20.5 76.5t12.5 47.5v4h-114l-4 -12l-52 -226l-4 -19l-8 -64q0 -23 12 -47q9 -15 24.5 -24t33 -13.5t36 -5.5t33.5 -1
q35 0 68.5 6.5t53.5 21.5q39 24 55 57t25 66l7 23q13 58 25 106q10 42 20 79.5t15 48.5v4h-99zM1272 1143h-27q-57 0 -83.5 0.5t-35.5 3.5q0 -5 -2 -11q-1 -3 -2 -5l-24 -123q-18 -74 -32 -134q-6 -26 -12 -50.5t-11 -44.5t-8 -33t-4 -15h103q0 5 2.5 18.5t5.5 27.5
q4 17 8 37q4 15 8 28q3 11 5.5 20.5t2.5 11.5q1 0 2 2q1 1 2 2.5t3 3.5h4q45 0 88.5 4.5t82.5 30.5q23 18 40.5 45t26.5 62q0 9 2 18t2 18q0 12 -3 25t-9 22q-21 27 -55.5 31.5t-79.5 4.5zM1308 1016q-3 -20 -16.5 -37t-30.5 -26q-12 -6 -29 -7t-35 -1h-16v4l28 123v8l4 4
h12l28 -4q11 -2 20 -3t11 -1q15 -6 22.5 -21t1.5 -39zM1522 803q-15 33 -6 61.5t33 46.5t59 22t72 -12l20 72q-53 24 -101 22t-86 -21.5t-65.5 -51.5t-39.5 -68t-7.5 -70.5t29 -59.5t71.5 -35.5t120 3.5l19 79q-13 -3 -31 -6.5t-35.5 -4t-31.5 4t-20 18.5zM2040 1004
q-18 -4 -31 -6.5t-24.5 -4t-24.5 -3.5t-31 -5l-4 -4q0 -3 -2 -6.5t-2 -9.5q-12 24 -35 35q-18 6 -53 -4t-70 -39q-24 -21 -36.5 -49t-18.5 -58q-5 -14 -8 -32.5t-0.5 -37.5t13 -35t34.5 -25q30 -12 56 -12q17 3 32.5 10t30.5 21q-3 -6 -4 -12t-4 -11l4 -4q16 1 28 2
t23.5 1.5t24.5 0.5h31h4q6 32 15 69.5t24 96.5q6 29 14 59t14 59v4zM1830 771q-2 0 -5.5 0.5t-7.5 3.5t-7 9.5t-3 18.5q0 8 2 20t5 27q9 36 22.5 61.5t37.5 25.5q20 0 26 -22t-2 -57q-2 -3 -4.5 -11.5t-6.5 -19t-8.5 -20.5t-8.5 -16q-6 -9 -18.5 -14.5t-21.5 -5.5zM2594 953
q-9 9 -27 14.5t-32 5.5q-12 0 -22 -1t-22 -7q-12 -3 -22 -9.5t-22 -18.5l36 139h-79l-111 -388l75 -4l40 119q6 26 11.5 41.5t8.5 21.5q6 15 16 25t19 18q18 12 36 12q6 0 11.5 -2.5t8.5 -5.5q3 -6 5.5 -11.5t2.5 -11.5q-3 -3 -4 -12t-4 -24l-87 -257q0 -4 -2 -6
q-1 -2 -2 -2q-3 -3 -16 -3.5t-16 -0.5h-8l-16 -47h52q23 0 45.5 4.5t37.5 30.5l87 277q6 15 9 29t3 23q3 14 -1.5 26.5t-10.5 24.5zM2218 917q18 -3 35 -8t40 -7l16 71q-61 27 -113 20t-85 -31t-40.5 -58t20.5 -62q12 -11 23 -16t21.5 -8t20 -5t18.5 -6q18 -18 -1.5 -25.5
t-73.5 1.5q-11 1 -22 4q-9 2 -19 4t-18 4l-20 -83q49 -12 99 -13.5t88 11.5t56.5 42t5.5 78q-5 9 -14.5 17t-19.5 14q-11 7 -25 13q-2 0 -8 1.5t-12 5.5t-10.5 9.5t-1.5 14.5q3 8 9.5 10t13.5 3q8 0 17 -1zM1313 414h138l15 57h-108q2 5 5 11.5t6 12.5q4 7 7 15h-87
q-9 -29 -20 -44t-21 -23q-11 -9 -22 -11h-24l-15 -60h39q19 0 35.5 6.5t27.5 14.5q13 9 24 21zM1187 57q-3 -9 -2 -17q1 -7 4.5 -13.5t12.5 -11.5q3 -3 7 -5t9.5 -3t13.5 -1h126l12 57h-81q-4 0 -7 2q-2 2 -4.5 5.5t-0.5 10.5l18 81h99l12 57h-99l21 81h96l15 60h-240
l-15 -60h60l-18 -81h-60l-15 -57h60zM1403 21q5 -7 12.5 -10t14.5 -4q8 -2 15 -1h96l15 57h-54q-7 1 -10 4t-4 6q-2 4 -1 8l39 162h174q9 0 16 2t12 4q6 3 11 6q10 8 16.5 17.5t11.5 17.5q5 10 8 19l45 201h-147q-17 0 -34 -6t-31 -14q-16 -9 -31 -19l9 39h-81l-105 -450
q-4 -11 -4 -18t2 -12t5 -9zM1574 450h150l-9 -45h-72q-17 -2 -32.5 -7t-27.5 -12q-14 -8 -27 -17zM1550 348h150l-12 -48h-150zM1700 219l-9 -30q-3 -7 -7 -8q-3 -1 -5 -1h-30l-3 39h-81v-168q1 -7 2 -12t2 -8q1 -4 2 -7q3 -8 11 -11.5t16 -5.5q10 -2 21 -1h93l12 57h-60
q-6 0 -8.5 2t-4.5 4q-2 3 -2 6v60h39q12 0 21 2t14 4q6 3 10 6q5 3 9 7.5t6 9.5q3 5 3 10l12 45h-63zM1802 30h192l-6 -24h84l6 24h24l12 57h-24l84 366h27l12 57h-105q-17 -2 -33 -8t-29 -13q-15 -8 -28 -18l6 39h-81l-99 -423h-30zM2012 453h81l-21 -84q-11 -1 -24 -5
q-11 -4 -27.5 -10.5t-35.5 -20.5zM1979 312h81l-21 -84q-11 -1 -24 -5q-11 -4 -27.5 -10.5t-35.5 -20.5zM1946 171h81l-21 -81h-78zM2177 312h102l-12 -57h-105l-12 -57h96l-72 -117q-5 -7 -9.5 -10.5t-7.5 -5.5q-4 -2 -7 -2h-30l-15 -57h60q22 0 38 7q8 4 13 8q11 10 19 22
q4 6 8 14l42 69l12 -69q1 -8 2.5 -13.5t3.5 -10.5l3 -9q5 -7 13 -10.5t15 -5.5q8 -2 17 -2h45l15 57h-21q-5 1 -7.5 4.5t-4.5 8.5t-3 11l-15 81h-51l21 30h111l12 57h-102l12 57h105l12 57h-291zM2471 432q8 9 16 20q7 10 14 24t12 34h-90q-1 -6 -4 -12q-5 -13 -11 -21
q-4 -5 -10 -9q-5 -4 -13 -6.5t-19 -2.5l-15 -60h51q11 -1 22 3q10 3 22 9.5t25 20.5zM2282 399h51l15 60q-21 0 -28 9q-4 4 -5 9q-4 8 -2 21l2 12h-93q-4 -20 -3 -34t3 -24q3 -11 6 -20q7 -14 16.5 -20.5t17.5 -9.5q10 -4 20 -3z" />
    <glyph glyph-name="uniF01A" unicode="&#xf01a;" horiz-adv-x="2367" 
d="M430 877l-53 -323h-85l49 256l-148 4l-47 -260l-73 2q7 68 14 123q3 24 6 47t6 41.5t5.5 32t4.5 17.5q4 8 11 18.5t16.5 19.5t21 15.5t25.5 6.5h247zM256 554q5 -13 28 -33t69 -27l-6 -58q-20 -1 -42 5q-19 5 -44 18.5t-51 41.5q-27 -20 -54 -36q-23 -14 -51.5 -24
t-54.5 -8l-4 57q31 2 57 12q23 8 45.5 25t34.5 47q10 30 16.5 64.5t10.5 63.5q4 34 7 68h70q-11 -56 -19 -102q-3 -20 -6 -39t-5 -34.5t-2.5 -26.5t1.5 -14zM754 828v-47h-46q-9 -88 -20 -158q-5 -30 -10.5 -59.5t-11.5 -53.5t-13 -40.5t-14 -20.5h-122q33 40 59 80
q23 34 42.5 73t23.5 72q4 34 3 53t-6 29t-12 13t-14 5q-6 1 -33.5 2t-57.5 1h-78l23 51h172v43h81v-43h34zM597 750q-28 -79 -57 -142q-12 -27 -26 -53t-27.5 -47t-27.5 -35t-26 -17q-26 -7 -36.5 -8.5t-13.5 -1.5q-4 0 0 3q0 14 2 25q2 10 4.5 19.5t7.5 13.5q8 8 18 18.5
t21 30.5q8 9 22.5 40t28.5 66q16 40 34 88h76zM1093 999l-81 -122l-67 -434h-111q19 98 34 176q6 33 12.5 65t11.5 57.5t8.5 41.5t4.5 18h-57l10 62q9 3 17 7q7 3 14 7.5t12 9.5q4 4 18 22t29 38q18 24 38 52h107zM1566 937l-8 -62l-35 -4q-8 -73 -17 -136q-4 -27 -8.5 -55
t-9.5 -53t-10 -46t-11 -34q-13 -26 -35.5 -52t-55 -46.5t-75.5 -33t-98 -12.5q81 35 136 84q23 21 42.5 47.5t30 58.5t9 69.5t-20.5 81.5l25 119h-363q9 13 17 26q7 11 13.5 23.5t9.5 22.5h337l12 61h107l-12 -59h20zM2269 801q-5 -5 -7 -10q-6 -11 3 -27h30
q-15 -71 -26 -127q-5 -24 -10 -47t-9.5 -42t-8 -31t-5.5 -14h-108q33 39 54 79q9 17 16 35.5t10 36.5t1 36t-11 33h-96l-5 -23h81q1 -13 -1 -24q-2 -9 -6 -16.5t-13 -9.5h-73l-4 -30l85 -3q-1 -11 -4 -20q-2 -8 -5 -14t-8 -6h-81l-7 -74h-93l7 67h-88l-16 -63l-84 -4
q7 63 16 116q4 22 8 44.5t8.5 40.5t9 31t9.5 18q8 11 21 14.5t26 4.5q15 1 32 -2l10 21h115v-14h99q6 7 10 14q4 6 7.5 13t3.5 13h-328l24 46h448q1 -17 -3 -30q-3 -11 -11 -21t-23 -11zM1978 620q5 0 7 4.5t3 10.5t0 15q-22 0 -40 1q-16 0 -30.5 0.5t-19.5 -1.5
q-5 0 -6.5 -4.5t-1.5 -9.5q0 -6 1 -13q21 -1 39 -2q15 -1 29 -1h19zM1994 704q13 0 13 9q0 4 -2 10h-94q-9 -3 -5 -11q2 -4 5 -8h83v0zM1798 470q12 -1 38.5 -1h61h75h80.5q94 0 206 1l-10 -43h-451q-19 1 -37 5q-15 3 -30.5 8.5t-24.5 15.5q-6 -8 -12 -13q-5 -5 -10.5 -9
t-10.5 -4h-62v47q9 -3 17 -1q7 2 13.5 7.5t9.5 19.5q1 7 3.5 21t5.5 33t6.5 40.5t6.5 42.5q8 50 18 110h-31l7 53h120l-60 -290q2 -11 10 -20q7 -8 21 -15t40 -8zM1326 769q25 -20 37.5 -48.5t13.5 -60.5t-10.5 -65t-33.5 -61q-24 -28 -54 -44.5t-61.5 -22t-61.5 2t-54 27.5
q-23 20 -35.5 48t-13 59.5t10.5 64t35 61.5q22 27 51.5 44t60.5 22.5t61 -1t54 -26.5zM1267 697h-112l-13 -114h114zM1673 883q-14 50 -47.5 86.5t-81 63t-107.5 43t-126.5 26t-138.5 12t-143 0.5q-252 -7 -558 -66q237 64 420 90.5t321.5 27t236.5 -20.5t164 -52
q155 -74 195 -210h-135v0z" />
    <glyph glyph-name="uniF01C" unicode="&#xf01c;" horiz-adv-x="1931" 
d="M117 -6v1358q0 40 28.5 68.5t68.5 28.5h123v199q0 26 19 45.5t45 19.5h217q26 0 45.5 -19.5t19.5 -45.5v-199h564v199q0 26 19 45.5t45 19.5h204q26 0 46 -19.5t20 -45.5v-199h137q40 0 68.5 -28.5t28.5 -68.5v-1358q0 -40 -28.5 -68.5t-68.5 -28.5h-1504
q-40 0 -68.5 28.5t-28.5 68.5zM341 122h227v229h-227v-229zM341 464h227v229h-227v-229zM341 807h227v228h-227v-228zM437 1304h137v319h-137v-319zM681 122h228v229h-228v-229zM681 464h228v229h-228v-229zM681 807h228v228h-228v-228zM1023 122h227v229h-227v-229z
M1023 464h227v229h-227v-229zM1023 807h227v228h-227v-228zM1342 1304h137v319h-137v-319zM1363 122h228v229h-228v-229zM1363 464h228v229h-228v-229zM1363 807h228v228h-228v-228z" />
    <glyph glyph-name="uniF01D" unicode="&#xf01d;" horiz-adv-x="2484" 
d="M162.5 988.5q-10.5 110.5 21 216.5t100 189t171.5 133t235 50q129 -3 243 -41q48 -16 97 -40.5t93.5 -61.5t80.5 -87t58 -116q25 65 62 114t80.5 85.5t90.5 62t91 41.5q105 38 223 43q139 0 246 -47.5t176.5 -126t99.5 -181.5t16 -214t-75 -222t-173 -207
q-56 -43 -166 -136q-47 -40 -110.5 -93.5t-146.5 -125t-186 -161t-228 -200.5q-240 194 -407.5 330.5t-271.5 222.5q-122 101 -198 163q-104 85 -158 192t-64.5 217.5z" />
    <glyph glyph-name="uniF01E" unicode="&#xf01e;" horiz-adv-x="2153" 
d="M67 953l675 136l335 605l336 -605l673 -136l-467 -507l82 -688l-624 289l-624 -289l81 687z" />
    <glyph glyph-name="uniF021" unicode="&#xf021;" 
d="M82 570v294l283 30q13 43 30.5 83.5t38.5 81.5l-180 221l204 206l221 -181q39 21 80.5 39t85.5 31l30 282h294l30 -282q43 -13 83.5 -31t82.5 -39l220 181l206 -206l-181 -221q21 -41 39 -81.5t31 -83.5l282 -30v-294l-282 -31q-13 -43 -31 -84.5t-39 -80.5l181 -221
l-206 -204l-220 180q-41 -22 -82 -39.5t-84 -30.5l-30 -282h-294l-30 282q-43 13 -85 30.5t-81 39.5l-221 -180l-204 204l180 221q-22 39 -39.5 80.5t-29.5 84.5zM751 717q0 -114 79 -195q79 -79 194 -79t194 79q79 80 79 195t-79 194t-194 79t-194 -79t-79 -194z" />
    <glyph glyph-name="uniF022" unicode="&#xf022;" horiz-adv-x="2512" 
d="M1821 739q25 -5 63 -19t76 -39.5t71 -63.5t49 -90.5t9.5 -121t-47.5 -155.5q-40 -86 -108.5 -157t-155.5 -126.5t-188.5 -96t-207.5 -65.5t-212.5 -35t-203.5 -5q-91 9 -189.5 27t-194.5 48t-185 75t-160 109.5t-119.5 150t-63.5 197.5q-3 61 15 135q15 63 53 148.5
t115 185.5q84 115 183 215q42 43 90.5 86.5t102.5 82.5t112.5 70.5t118.5 50.5q86 31 148.5 36t105.5 -6.5t69 -37t40.5 -56t19 -62.5t4.5 -57q-8 -38 -16.5 -64t-6.5 -41t20.5 -18.5t64.5 4.5q93 43 180 62q37 8 76.5 12.5t77.5 0.5t72 -17t61 -40q19 -19 30 -39t16 -40.5
t5.5 -40.5t-2.5 -38q-7 -42 -28 -83q-15 -17 -18 -33q-2 -14 9 -27.5t49 -21.5zM987 -95q153 0 283 45t225.5 117.5t149.5 163t54 182.5q0 99 -54 178t-149.5 132.5t-225.5 79t-283 18.5q-96 -5 -186 -25t-168.5 -52t-144 -76t-112 -96.5t-72.5 -113t-26 -126.5t26 -125
t72.5 -108t112 -87.5t144 -64t168.5 -36.5t186 -6zM905 658q102 10 176 -11t123 -61.5t75.5 -95.5t33.5 -112.5t-4.5 -112.5t-36.5 -96q-54 -61 -121.5 -102t-145.5 -56t-164.5 -2.5t-176.5 58.5q-38 23 -58 54t-30 60q-11 33 -13 69q-6 98 27 181q14 35 38 70.5t61.5 66.5
t90.5 54.5t125 35.5zM824 128q23 8 45 19.5t39 29t27.5 40.5t10.5 54q0 46 -33 73.5t-109 27.5q-23 -8 -45 -22.5t-39 -33.5t-27.5 -41t-10.5 -45t11 -41.5t30 -32t45 -21t56 -7.5zM1048 332q7 7 14 18t11 22.5t3 22t-8 18.5q-15 15 -33 15t-48 -15q-16 -15 -16 -40.5
t16 -40.5q0 -8 6.5 -12t16 -4t20 4t18.5 12zM2001 902q-8 0 -18 6.5t-20 16.5t-16.5 20t-6.5 18q13 78 -5 133q-8 24 -22.5 44.5t-40 34t-63 17t-89.5 -7.5q-8 0 -18.5 6.5t-20 16t-16 20t-6.5 18.5q0 15 6.5 29.5t16 26t20 18.5t18.5 7q112 10 196 -23q36 -14 69.5 -39
t57.5 -65.5t35.5 -98.5t4.5 -137q-16 -31 -33.5 -46t-48.5 -15zM1961 1651q61 -15 127.5 -46t128 -79t112.5 -113.5t80.5 -150.5t31.5 -190t-33 -231q-15 -46 -43 -63.5t-59 -17.5q-15 0 -32.5 7t-33 20.5t-25.5 32t-10 41.5q0 15 6 30t14 26q9 13 20 26q0 7 5 32.5t5 65
t-10 91.5t-40 113q-36 61 -81.5 103t-93.5 69t-95.5 41.5t-87.5 21.5t-68.5 8t-38.5 1q-8 -8 -21 -15t-27 -13q-16 -7 -33 -13q-15 0 -30 10t-26.5 25.5t-18.5 33.5t-7 33q0 30 15.5 58t45.5 43h21q7 0 35.5 6t70.5 9.5t92.5 1.5t103.5 -17z" />
    <glyph glyph-name="uniF023" unicode="&#xf023;" horiz-adv-x="2156" 
d="M600 1510q115 0 215.5 -46.5t175.5 -125.5t118 -183t43 -219t-43 -216t-118 -176t-175.5 -118t-215.5 -43q-32 0 -62 2.5t-61 18.5q-8 0 -15 6.5t-12.5 16t-9 20t-3.5 18.5l14.5 14.5t15 11t15.5 3t16 -8.5h102q100 0 186 36t149.5 97.5t99.5 143.5t36 174t-36 174
t-99.5 143.5t-149.5 97.5t-186 36q-92 0 -174 -36t-143.5 -97.5t-97.5 -143.5t-36 -174q0 -23 3.5 -49.5t9.5 -53.5t13.5 -53t15.5 -48q8 -8 8.5 -19t-3.5 -20.5t-11 -16.5t-15 -7q-8 -8 -16 -8.5t-15.5 3.5t-15.5 11t-15 15q-61 124 -61 246q0 115 43 219t118 183
t176 125.5t216 46.5zM498 792q-16 -16 -43.5 -56t-59.5 -88q-124 -170 -169.5 -378t-13.5 -439q0 -8 -3.5 -19t-9.5 -20.5t-13.5 -16.5t-15.5 -7h-21q-16 0 -28.5 13t-12.5 29q-15 161 -2 299t44 253t74.5 207.5t89.5 162.5q30 45 63 78.5t79 63.5q-7 7 -14 18t-13 23
t-9.5 23t-3.5 19q0 38 17.5 71.5t46.5 58t65.5 39t75.5 14.5q30 0 62.5 -14.5t59.5 -39t44 -58t17 -71.5t-17 -72t-44 -59.5t-59.5 -40t-62.5 -14.5q-32 0 -62 2.5t-61 18.5zM1645 1080q6 0 10 -3q4 -2 7 -6t3 -12t-3 -12t-7 -6q-4 -3 -10 -3q-48 0 -80.5 2.5t-63.5 18.5
q-61 30 -103 78t-63 105.5t-20.5 121t23.5 125.5q30 54 78 94.5t105.5 61.5t121 19.5t125.5 -31.5q61 -32 102.5 -79.5t61 -103.5t15 -115t-34.5 -113q-8 -15 -12.5 -26.5t-8.5 -19t-8.5 -11.5t-12.5 -4q0 -16 -13 -18.5t-29 -2.5v42q8 7 12.5 14.5t8.5 15t8.5 15.5t12.5 16
q22 46 23 97.5t-16 97.5t-50.5 81.5t-79.5 50.5q-46 31 -97.5 36.5t-99.5 -10t-88 -49t-63 -79.5q-23 -54 -27 -106.5t11.5 -98.5t50 -83t88.5 -60q15 -8 27.5 -15t26 -12.5t29.5 -9t40 -3.5zM2095 874q16 0 18.5 -12t2.5 -28q-6 -5 -13 -8q-6 -2 -13.5 -1t-15.5 9
q-84 22 -150 58.5t-116 78.5t-85 86.5t-58 82.5q-8 16 -12 31t-8 28.5t-8.5 24.5t-12.5 19q-8 0 -15.5 3t-13.5 7q-7 4 -13 10q-45 16 -58 56.5t18 87.5q8 15 22.5 26t31.5 17t35.5 5.5t33.5 -8.5q23 -7 38.5 -21.5t23 -33.5t7.5 -41.5t-8 -45.5l-15.5 -15.5t-12.5 -13.5
q-6 -7 -12 -13q0 -8 3.5 -18.5t9 -22t12.5 -22.5t15 -18q63 -109 153.5 -185t215.5 -123z" />
    <glyph glyph-name="uniF024" unicode="&#xf024;" 
d="M336 832v0v21v0v21v0v21v0v21v21h20v21v21v0l22 20v21v21v21h20v0v21v0v0v21v21v20l22 22v20v42v21l20 21v20v0l22 42h20v22l21 20v22v0l21 20l20 22v20l42 20v42l22 22l41 20v0l21 22l21 20h21l21 22h21l41 20h21l21 22h21h42l21 20h20h42h21h21h42h20h42h22h42h20
l22 -20h40h22l20 -22h42h22l20 -20l42 -22l22 -20h20l20 -22v0l22 -20h20l22 -22l20 -20v-22l22 -20l20 -20v0l22 -42v0l20 -22l22 -42v-20v-22l20 -20v-21v0v-21l20 -42v-20v-42v-21v-42h22v0l20 -21v0v-21v-21l22 -20v0v-21v-21v0l20 -21v-21h-20v-21v0v-21v-21v0v0v-20v0
l20 -42l22 -22v-20l20 -42l21 -20l21 -22v-20l21 -42v0v-22l21 -20v-22v-20l20 -20v-22v-42l22 -42v-20v0v-22h-22v-42v-20l-20 -20v0v-22v-20v0h-21v-22v0v0h-21v0v0v0h-21v0v0v0h-21v0v22h-20v20l-22 22v0v20l-20 20v22v0h-22v0v-22v0v-20l-20 -42l-22 -42l-20 -20v0
l-20 -22l-22 -42v0v-20l-42 -22v0v0h22l42 -20l20 -20l20 -22h22l20 -20h22v-22v0v-20h20v0v-22v0v-20v0v0v-21v0h-20v-21v0h-22v-21v0h-20l-22 -21l-20 -20h-20v0h-22h-20l-22 -22h-20h-22h-42h-20h-22h-20h-42h-20h-22h-42h-20l-42 22h-22h-40l-22 20h-20l-42 21h-22v0
h-20v0h-22v0h-41l-21 21v0l-21 -21h-21l-20 -21l-22 -20h-20v0l-42 -22h-21h-21l-21 -20h-21h-21h-20h-21h-21h-21h-42h-41h-64l-20 20h-21h-21h-20h-22l-20 22h-22h-20l-22 20h-20v21v0h-22v21v0v0h-20v21v0v21v0v0v20v0v22v0v20v0h20v22v0v0l22 20v0v0l20 22v0v0l22 20h20
v0h22v0h20h22v0v0v0v0v20v0l-22 22h-20l-22 20l-20 22l-22 20l-20 22v0v20l-22 22v0l-20 20v22v20l-20 20v22v20h-22v0v0v0v0v0v0v0v0v-20l-20 -22v0v-20h-22v-20h-20v-22h-22l-20 -20v0h-22v-22h-20v0v0v0v22h-22v0v20v22v0v20l-20 20v0v22v42v20l20 22v20v22v20v22l22 20
v20v22l20 20v22l22 20l20 42l22 22v20h20l22 42v0l20 20v0l22 22h20l20 20l22 22v20v0z" />
    <glyph glyph-name="uniF025" unicode="&#xf025;" 
d="M147 567v339h661v741h432v-741h661v-339h-661v-775h-432v775h-661z" />
    <glyph glyph-name="uniF026" unicode="&#xf026;" horiz-adv-x="1720" 
d="M50 383v699h397l572 623h166v-1944h-166l-592 622h-377zM1299 335v177q40 0 75.5 15.5t62 42.5t42 62t15.5 77q0 41 -15.5 76.5t-42 62t-62 42t-75.5 15.5v177q77 0 144.5 -29.5t117.5 -80t79.5 -119t29.5 -144.5q0 -78 -29.5 -146t-79.5 -119t-117.5 -80t-144.5 -29z
" />
    <glyph glyph-name="uniF027" unicode="&#xf027;" horiz-adv-x="2454" 
d="M1635 1112q-147 0 -274 -51t-221.5 -140t-148.5 -209t-54 -259q0 -23 0.5 -43.5t2 -40t5.5 -40t11 -43.5h-81q-40 0 -75.5 3.5t-70.5 7.5t-70 7.5t-73 3.5l-289 -125l81 227q-77 62 -138 128t-103.5 137.5t-65 149.5t-22.5 163q0 98 29.5 188t83.5 167.5t129.5 141.5
t167.5 109t197 70t219 25q102 0 200.5 -20t187 -56.5t165 -88.5t136 -116t99.5 -139t56 -157h-84v0zM1182 1338q-15 0 -36.5 -7t-41 -20.5t-33 -32.5t-13.5 -42t13.5 -42t33 -32.5t41 -21t36.5 -7.5q31 0 51.5 7.5t31.5 21t15.5 32.5t4.5 42t-4.5 42t-15.5 32.5t-31.5 20.5
t-51.5 7zM605 1133q47 0 74.5 28t27.5 75t-27.5 74.5t-74.5 27.5q-23 0 -45.5 -7t-40 -20.5t-28 -32.5t-10.5 -42t10.5 -42t28 -32.5t40 -21t45.5 -7.5zM2399 472q0 -70 -22 -138t-60.5 -131.5t-91.5 -120.5t-115 -104l62 -207l-226 124q-63 -14 -124.5 -27.5t-124.5 -13.5
q-155 0 -286.5 47t-228 130t-151 196t-54.5 245q0 82 24.5 158.5t70.5 143t110.5 121.5t144.5 94t173.5 60.5t196.5 21.5q93 0 181.5 -21.5t166.5 -60.5t143 -94t112 -121.5t73 -143t26 -158.5zM1471 575q23 0 42 7.5t32.5 19t20.5 26.5t7 30t-7 30t-20.5 27t-32.5 19.5
t-42 7.5q-15 0 -30 -7.5t-26 -19.5t-18 -27t-7 -30t7 -30t18 -26.5t26 -19t30 -7.5zM1924 575q23 0 42 7.5t32.5 19t21 26.5t7.5 30t-7.5 30t-21 27t-32.5 19.5t-42 7.5q-15 0 -29.5 -7.5t-26 -19.5t-18.5 -27t-7 -30t7 -30t18.5 -26.5t26 -19t29.5 -7.5z" />
    <glyph glyph-name="uniF028" unicode="&#xf028;" 
d="M98 59l677 677l-677 677l249 249l677 -677l677 677l249 -249l-677 -677l677 -677l-249 -249l-677 677l-677 -677z" />
    <glyph glyph-name="uniF029" unicode="&#xf029;" horiz-adv-x="2603" 
d="M77 634l486 383l414 -391q62 53 124 104.5t122 100t116 92.5t106 82q114 88 219 165q106 77 227 161q104 72 235 161t271 177l129 -171q-38 -23 -86 -59.5t-100 -81t-107 -94t-106 -97.5q-121 -113 -249 -243q-139 -145 -295 -322q-66 -75 -142 -165t-158.5 -192
t-169 -214.5t-172.5 -232.5z" />
    <glyph glyph-name="uniF02A" unicode="&#xf02a;" horiz-adv-x="1957" 
d="M40 855q0 111 29 214.5t81.5 193t126.5 163t163.5 126.5t192.5 82t215 29t215 -29t192.5 -82t163.5 -126.5t126.5 -163t81.5 -193t29 -214.5q-1 -46 -11 -101q-9 -48 -26.5 -112.5t-50.5 -140.5q-10 -23 -5 -52.5t23 -47.5l332 -331q18 -18 18 -43.5t-18 -42.5l-198 -199
q-18 -18 -43.5 -18t-43.5 18l-331 332q-18 18 -47.5 23t-52.5 -5q-78 -33 -141.5 -50.5t-111.5 -26.5q-55 -10 -101 -11q-111 0 -214.5 29t-193 81.5t-163.5 126.5t-126.5 163.5t-81.5 192.5t-29 215zM275 855q0 -119 45.5 -223.5t123 -182.5t181.5 -123t223 -45t223.5 45
t182 123t123 182.5t45.5 223.5q0 118 -45.5 222.5t-123 182t-182 122.5t-223.5 45t-223 -45t-181.5 -122.5t-123 -182t-45.5 -222.5z" />
    <glyph glyph-name="uniF02B" unicode="&#xf02b;" horiz-adv-x="1794" 
d="M55 493v474q0 25 9 47.5t25.5 39t38.5 26t47 9.5t46.5 -9.5t37.5 -26t26 -39t10 -47.5v-474q0 -25 -10 -47.5t-26 -39t-37.5 -26.5t-46.5 -10t-47 10t-38.5 26.5t-25.5 38.5t-9 48zM365 1162q5 61 27.5 117t59 104t85.5 86t108 66l-99 143q-5 7 -3.5 14t7.5 11
q6 5 12.5 2.5t11.5 -8.5l101 -148q51 19 107 30t115 11t114 -11t107 -30l103 148q5 6 11.5 8t12.5 -2q6 -3 7 -10.5t-4 -14.5l-98 -143q58 -27 107 -65.5t85.5 -86.5t59 -104t28.5 -117h-1065zM367 217v869h1065v-869q0 -39 -27 -66.5t-67 -27.5h-106v-264q0 -25 -9.5 -47
t-25.5 -38.5t-38 -26.5t-47 -10t-47 10t-38 26.5t-25 38.5t-9 47v264h-186v-264q0 -25 -10 -47t-26 -38.5t-37.5 -26.5t-46.5 -10t-47 10t-38.5 26.5t-25.5 38.5t-9 47v264h-106q-40 0 -67 27.5t-27 66.5zM614 1369q0 -25 17 -42t41 -17q25 0 42 17t17 42q0 24 -17 41
t-42 17q-24 0 -41 -17t-17 -41zM1070 1369q0 -25 17.5 -42t41.5 -17q25 0 42.5 17t17.5 42q0 24 -17.5 41t-42.5 17q-24 0 -41.5 -17t-17.5 -41zM1499 493v474q0 25 9.5 47.5t26 39t38 26t46.5 9.5t47 -9.5t38 -26t25.5 -39t9.5 -47.5v-474q0 -25 -9.5 -47.5t-25.5 -39
t-37.5 -26.5t-47.5 -10q-25 0 -46.5 10t-38 26.5t-26 38.5t-9.5 48z" />
    <glyph glyph-name="uniF02C" unicode="&#xf02c;" horiz-adv-x="1706" 
d="M103 554q-1 21 0 40q1 30 2 57.5t6 57.5q13 95 39 174t75 133q37 40 79 68t85 45.5t84 25.5t78 8q56 0 104.5 -12.5t89 -28t71 -28t50.5 -12.5q19 0 59 14t89 30.5t102 30t100 13.5q40 0 86.5 -12.5t91.5 -37t87 -60t76 -81.5q-45 -25 -82.5 -59.5t-67.5 -82.5
q-55 -91 -55 -206q0 -62 18.5 -119.5t52 -106t80 -85.5t100.5 -57v-13q-30 -66 -54 -119.5t-44 -91.5q-13 -23 -24 -42t-23 -36q-30 -41 -61 -76.5t-70 -63.5q-71 -54 -150 -54q-37 0 -73.5 15.5t-72.5 33.5t-71 33.5t-71 15.5q-37 0 -78 -15.5t-82.5 -33.5t-84 -33.5
t-81.5 -15.5q-75 0 -160 72q-41 35 -82.5 97t-89.5 149q-58 106 -87.5 214.5t-37.5 212.5q-2 21 -3 42zM851 1241v29q0 23 3 45t8 45q6 30 14.5 52.5t18.5 42.5q11 23 23.5 43t25.5 38q17 17 35.5 32.5t38.5 29.5q35 25 87 46.5t118 27.5v-27q0 -26 -3.5 -49t-9.5 -45
q-7 -30 -15 -53t-18 -40q-11 -19 -22.5 -38.5t-26.5 -42.5q-16 -17 -35 -32.5t-38 -29.5q-35 -25 -85.5 -46t-118.5 -28z" />
    <glyph glyph-name="uniF02D" unicode="&#xf02d;" 
d="M85 -139v1714q0 34 24 58t58 24h1714q33 0 57.5 -24t24.5 -58v-1714q0 -33 -24.5 -58t-57.5 -25h-1714q-34 0 -58 24.5t-24 58.5zM319 271q75 30 135 43t111 13q82 0 143 -27t116 -63q7 23 18.5 61.5t24.5 84.5t28 95.5t27.5 93t22 77t14.5 48.5q-30 19 -61 36
q-37 19 -86 35t-103 16q-7 0 -13.5 -0.5t-13.5 -1.5q-56 -5 -104.5 -17t-83.5 -24q-11 -5 -22 -8.5t-22 -9.5zM480 833q75 31 136.5 45.5t112.5 14.5h4q80 -1 138.5 -28t111.5 -63q7 23 17 59t22.5 79t26.5 89t26.5 89t23 79.5t16.5 59.5q-35 21 -63.5 34.5t-49.5 22.5
q-24 10 -44 16q-23 6 -49.5 9t-55.5 3h-3q-49 -1 -109 -14.5t-133 -42.5zM906 189q45 -26 91 -47q40 -18 86 -32.5t90 -14.5q55 0 120 14t147 48l125 438q-72 -26 -133.5 -36t-112.5 -10q-57 0 -102.5 9.5t-80.5 24t-60 29.5t-39 28zM1066 743q0 -1 1 -1q55 -37 125.5 -62.5
t156.5 -25.5q56 0 118 13.5t131 46.5q1 0 1 1l130 447q-72 -31 -135 -44t-117 -13t-98 10t-79.5 24.5t-60.5 30.5t-41 29z" />
    <glyph glyph-name="uniF02E" unicode="&#xf02e;" horiz-adv-x="2146" 
d="M73 186v1440q0 22 15 37t37 15h1897q22 0 36.5 -15t14.5 -37v-1440q0 -22 -15 -37t-36 -15h-677q1 -17 4 -38t7 -40t8.5 -35t10.5 -26q9 -13 30 -22q17 -9 45.5 -16t75.5 -5v-183h-912v183q45 0 73 5.5t46 12.5q19 8 29 19q8 10 14.5 27t11 36.5t7 40.5t2.5 41h-672
q-22 0 -37 15.5t-15 36.5zM255 545q0 -22 15.5 -36.5t36.5 -14.5h1532q22 0 36.5 14.5t14.5 36.5v898q0 22 -14.5 37.5t-36.5 15.5h-1532q-22 0 -37 -15.5t-15 -37.5v-898z" />
    <glyph glyph-name="uniF032" unicode="&#xf032;" horiz-adv-x="2668" 
d="M152 -49v1551l678 -633l-545 -742l676 619l370 -346l364 339l670 -612l-541 734l693 646v-1556q0 -32 -22 -54t-53 -22h-2216q-31 0 -52.5 22t-21.5 54zM249 1592h2165l-1083 -1011z" />
    <glyph glyph-name="uniF035" unicode="&#xf035;" horiz-adv-x="1140" 
d="M109 718l918 919l5 -5v-352l-562 -562l562 -563v-350l-5 -6z" />
    <glyph glyph-name="uniF036" unicode="&#xf036;" horiz-adv-x="1140" 
d="M109 155l562 563l-562 562v352l4 5l919 -919l-919 -919l-4 6v350z" />
    <glyph glyph-name="uniF037" unicode="&#xf037;" horiz-adv-x="1966" 
d="M175 711l842 849l5 -5v-324l-516 -520l516 -520v-325l-5 -4zM945 711l842 849l5 -5v-324l-515 -520l515 -520v-325l-5 -4z" />
    <glyph glyph-name="uniF038" unicode="&#xf038;" horiz-adv-x="1966" 
d="M175 -122v324l515 520l-515 520v325l4 4l843 -849l-843 -849zM945 -122v324l516 520l-516 520v325l5 4l842 -849l-842 -849z" />
    <glyph glyph-name="uniF039" unicode="&#xf039;" horiz-adv-x="1450" 
d="M114 729l1222 900v-1800z" />
    <glyph glyph-name="uniF03A" unicode="&#xf03a;" horiz-adv-x="1437" 
d="M111 -162v1791l1216 -895z" />
    <glyph glyph-name="uniF03B" unicode="&#xf03b;" horiz-adv-x="1797" 
d="M109.5 342q3.5 29 26.5 52l694 694q30 30 69.5 30t69.5 -30l693 -694q23 -23 27 -52t-7 -55t-34.5 -44t-55.5 -18h-1386q-31 0 -54.5 18t-34.5 44t-7.5 55z" />
    <glyph glyph-name="uniF03C" unicode="&#xf03c;" horiz-adv-x="1742" 
d="M97 994q-3 29 7.5 54t33.5 43t54 18h1359q31 0 53.5 -18t33.5 -43t7 -54t-26 -51l-680 -680q-29 -29 -68 -29t-68 29l-680 680q-23 22 -26 51z" />
    <glyph glyph-name="uniF043" unicode="&#xf043;" horiz-adv-x="1890" 
d="M75 -247v1953h1740v-1953h-1740zM221 -102h1449v1663h-1449v-1663zM366 272v144h1159v-144h-1159zM366 607v145h1159v-145h-1159zM366 943v145h1159v-145h-1159zM366 1271v145h1159v-145h-1159z" />
    <glyph glyph-name="uniF045" unicode="&#xf045;" horiz-adv-x="2068" 
d="M63 729q0 199 69 368t212 312t312 211.5t368 68.5t368 -68.5t312 -211.5t212 -312t69 -368q0 -200 -69 -369t-212 -312t-312 -211.5t-368 -68.5t-368 68.5t-312 211.5t-212 312t-69 369zM537 376q0 -27 8 -50q7 -24 29 -48q9 -9 21 -15t28 -12q17 -9 48 -9h7q58 0 107 51
l239 237l237 -237q49 -50 109 -51h9q61 0 95 36q9 15 16.5 25t10.5 23q10 18 10 50v7q0 57 -50 107l-239 239l239 238q13 13 21.5 24.5t15.5 27.5q13 31 13 55v7q0 27 -8 50q-8 27 -29 48q-38 38 -95 38h-9q-31 0 -59 -14t-50 -38l-237 -238l-239 238q-13 13 -23 21.5
t-29 16.5q-14 6 -28.5 10t-26.5 4h-7q-31 0 -48 -9q-27 -10 -49 -29q-18 -18 -29 -48q-6 -15 -7 -26t-1 -24v-7q0 -57 50 -107l239 -238l-239 -239q-50 -50 -50 -107v-7z" />
    <glyph glyph-name="uniF046" unicode="&#xf046;" 
d="M63 729q0 199 69 368t212 312t312 211.5t368 68.5t368 -68.5t312 -211.5t212 -312t69 -368q0 -200 -69 -369t-212 -312t-312 -211.5t-368 -68.5t-368 68.5t-312 211.5t-212 312t-69 369zM768 257q3 -27 16 -49.5t35 -37.5t59 -20q73 -10 132 -2.5t104 24.5t76 37.5
t48 36.5q23 21 -21 20q-18 0 -40.5 2.5t-42.5 7.5t-36 13.5t-21 21.5q-9 19 -4 54.5t19 79.5t35.5 93t45.5 95q23 45 29.5 92.5t-5.5 87.5t-42 68.5t-81 35.5q-30 3 -60.5 -1.5t-59 -13.5t-54 -22t-45.5 -24q-17 -9 -23.5 -15.5t-6 -10.5t6 -5.5t10.5 -1.5q39 0 52 -27.5
t10 -68.5t-19 -88.5t-36 -86.5q-10 -21 -23 -49t-25 -59t-21 -64.5t-12 -64.5t0 -58zM954 1183q0 -31 12 -59t32.5 -49t49 -33.5t61.5 -12.5q32 0 60.5 12.5t49 33.5t32.5 49t12 59t-12 58.5t-32.5 48.5t-49 33t-60.5 12q-33 0 -61.5 -12t-49 -33t-32.5 -48.5t-12 -58.5z
" />
    <glyph glyph-name="uniF04E" unicode="&#xf04e;" horiz-adv-x="2252" 
d="M78 -233v1346h560v-1346h-560zM847 -233v953h560v-953h-560zM1615 -233v1906h560v-1906h-560z" />
    <glyph glyph-name="uniF054" unicode="&#xf054;" horiz-adv-x="2750" 
d="M219 136v1455h1949v-292h363v-1429h-2012v266h-300zM365 281h154v1018h1504v147h-1658v-1165zM689 697h1697v288h-1697v-288z" />
    <glyph glyph-name="uniF055" unicode="&#xf055;" horiz-adv-x="2694" 
d="M103 -192v431h420v-431h-420zM103 489v431h420v-431h-420zM103 1211v432h420v-432h-420zM747 -192v431h1846v-431h-1846zM747 489v431h1846v-431h-1846zM747 1211v432h1846v-432h-1846z" />
    <glyph glyph-name="uniF058" unicode="&#xf058;" horiz-adv-x="1755" 
d="M43 -256v787h789l-298 -297q154 -121 345 -121q216 0 375 149q160 149 177 361h279q-9 -166 -73 -305t-187 -253q-241 -227 -571 -227q-305 0 -543 197zM43 810q9 166 74 305.5t186 253.5q243 227 574 228q304 0 540 -199h2l292 291v-787h-788l298 297q-149 121 -342 121
q-217 0 -378 -147q-161 -151 -179 -363h-279z" />
    <glyph glyph-name="uniF059" unicode="&#xf059;" horiz-adv-x="2096" 
d="M1824 728l-1354 -1005v243l1058 762l-1058 729v243zM1231 728l-761 -520v244l423 276l-423 244v242zM1824 728l-1354 -1005v243l1058 762l-1058 729v243zM1231 728l-761 -520v244l423 276l-423 244v242z" />
    <glyph glyph-name="uniF060" unicode="&#xf060;" horiz-adv-x="2168" 
d="M1066 1382l1005 -1354h-243l-762 1058l-729 -1058h-243zM1066 789l520 -761h-244l-276 423l-244 -423h-242zM1066 1382l1005 -1354h-243l-762 1058l-729 -1058h-243zM1066 789l520 -761h-244l-276 423l-244 -423h-242z" />
    <glyph glyph-name="uniF061" unicode="&#xf061;" horiz-adv-x="2996" 
d="M2686 -251h-2353q-58 0 -109.5 19.5t-90 54t-61.5 82.5t-23 105v1418q0 56 23 104.5t61.5 83t90 54t109.5 19.5h2353q57 0 105 -19.5t82.5 -54t54 -83t19.5 -104.5v-1418q0 -57 -19.5 -105t-54 -82.5t-82.5 -54t-105 -19.5zM2229 -164h261v350h-261v-350zM1945 -164h87
v350h-87v-350zM1508 -76h175v-88h88v350h-88v-87h-175v-175zM680 -164h284v263h-87v87h-197v-350zM333 10h86v-174h175v350h-261v-176zM333 731h261v86h-349q0 -25 7 -41.5t20 -26t28.5 -14t32.5 -4.5zM245 905h174h22q-17 16 -19.5 35t-2.5 51h-174v-86zM333 1252
q-17 0 -32.5 -7.5t-28.5 -19.5t-20 -27.5t-7 -31.5v-88h196q9 16 24.5 31.5t36 28.5t44 20.5t48.5 7.5v86h-261zM594 1078q-17 0 -32.5 -6.5t-28 -19.5t-19.5 -28.5t-7 -32.5t7 -36t19.5 -34.5t28 -27t32.5 -11.5q24 0 41 11.5t27 27t14 34.5t4 36t-4 32.5t-14 28.5
t-27 19.5t-41 6.5zM964 1252h-284v-86h371q0 16 -7 31.5t-20 27.5t-28.5 19.5t-31.5 7.5zM1051 1078h-304q8 -8 12 -19t6 -23.5t2.5 -24t0.5 -20.5h283v87zM1051 905h-283q-8 -9 -16 -14t-14 -9t-10 -8.5t-4 -12.5q-7 0 -12 -3.5t-9 -7t-9 -7t-14 -3.5v-109h284
q16 0 31.5 4.5t28.5 14t20 26t7 41.5v88zM1314 186h-88v-176h88v176zM1314 -76h-88v86h-88v-86h-87v-88h263v88zM2185 1603q-93 0 -179 -24.5t-161 -68t-137.5 -104.5t-106.5 -133t-68.5 -154.5t-24.5 -170.5q0 -93 24.5 -179t68.5 -161.5t106.5 -136.5t137.5 -105.5
t161 -69t179 -24.5t179 24.5t161.5 69t136.5 105.5t105.5 136.5t69 161.5t24.5 179q0 87 -23 170t-65.5 155t-103 133t-135.5 104.5t-162.5 68t-186.5 24.5zM2751 882q-3 -45 -15 -86t-28 -76.5t-35 -66.5t-39 -57q-45 -61 -101 -106q-17 8 -22 19.5t-5 21.5q0 12 6 25v44
l21 64q-1 24 -11 38q-8 13 -26 18t-49 -12q-33 -8 -48.5 -12t-26 -6t-22 -2.5t-34.5 -0.5q-17 0 -28 6t-19 17t-12.5 24.5t-6.5 28.5q-5 33 0 77v108q0 8 8.5 13t22 8t31.5 4.5t35 1.5q44 0 100 -5q20 -16 36.5 -25t29 -12t22.5 -1.5t18 5.5q16 10 24 33l86 65l23 23l-66 64
l-65 22q-17 -1 -27 -8q-8 -6 -10 -19.5t15 -38.5q-2 -12 -6 -21q-5 -8 -13 -15t-24 -7l-43 87q-7 -19 -17 -36q-8 -14 -20.5 -28.5t-28.5 -22.5q-17 -8 -35.5 -9t-35.5 1q-19 3 -38 8q-6 36 -6 68q0 26 5.5 51t21.5 34l66 -22q-6 6 -9 13q-2 6 -1 14.5t10 15.5q0 16 4 19
t10 3t13.5 2t15.5 19q17 9 30 0t25.5 -21t25.5 -20.5t29 -1.5q16 0 22 4t8 10t3.5 13.5t9.5 15.5q17 0 29.5 -7t20.5 -14q8 -10 15 -22l66 -21v64q11 -17 21.5 -42t20 -55t16.5 -60t10.5 -56t3 -45t-6.5 -24h-21h-87l65 -43q6 -13 13 -22q6 -9 14.5 -16t15.5 -7zM2643 1275
q8 0 12.5 -0.5t8 -2.5t8.5 -6.5t14 -13.5q-9 9 -14 13.5t-8.5 6.5t-8 2.5t-12.5 0.5zM2447 1275q-19 1 -31 6q-11 4 -16.5 12.5t2.5 25.5l22 65v65q17 0 47 -16t62 -49q-8 -41 -22 -63t-29 -33q-17 -11 -35 -13zM2293 1275q-7 0 -5.5 10t8.5 23q7 15 20 33q0 5 3 10
q2 4 6.5 7.5t11.5 3.5q8 0 9 -4t-1.5 -9.5t-5 -13t-2.5 -16.5q0 -8 0.5 -13t2 -9t6 -8.5l13.5 -13.5q8 -9 2 -13t-18 -4t-26.5 4t-23.5 13zM2229 1275q0 13 10 19q4 3 11 3q16 0 21.5 -4t5.5 -10t-2.5 -14t-2.5 -17q-12 0 -22 3q-8 2 -14.5 6.5t-6.5 13.5zM2163 1449
q-8 -7 -19 -19t-18.5 -24.5t-10.5 -24t5 -19.5q-1 -23 -6 -37q-5 -13 -13.5 -18t-25.5 12q-16 17 -31.5 32.5t-27.5 32t-19.5 33t-7.5 32.5v23q25 15 61.5 23.5t71.5 10.5t59.5 -2t24.5 -11q-8 -8 -15.5 -12.5t-13.5 -8.5t-10 -9t-4 -14zM1945 1341q32 0 44 -7t16.5 -17.5
t7.5 -21.5t19 -20q8 0 5.5 -7t-11 -17.5t-19 -21.5t-18.5 -20q-9 -7 -17 -5.5t-13 8.5q-7 7 -14 19q5 6 8 10q2 4 1 7.5t-9 3.5q-9 9 -16.5 6.5t-11.5 -8.5t-3 -12.5t8 -6.5q17 0 20 -13.5t3 -29.5q0 -7 -3 -13q-2 -7 -7 -15t-13 -16q-7 -17 -17.5 -25.5t-21.5 -12.5
q-12 -5 -25 -5q6 0 11 -3q4 -2 7.5 -7t3.5 -13q8 -8 9 -18.5t-1 -21.5q-3 -12 -8 -24q0 -9 -7.5 -9t-17.5 5.5t-21.5 18t-19.5 29.5q0 7 -3.5 8t-8.5 -1q-4 -2 -10 -7h-64q-23 -11 -29.5 -28t-5.5 -36t9 -36t15.5 -27.5t11.5 -13t-1 9.5q0 -9 7 -10t17 1.5t21 5.5t19 3
q8 7 19.5 11t22 4t17.5 -4t7 -11q8 -9 20 -16.5t24 -14t23 -10.5t20 -4q8 -8 19.5 -12.5t24 -8.5t24 -8.5t19.5 -12.5q8 -9 9 -21t-1 -23.5t-5 -23.5t-3 -21q-8 0 -12.5 -6.5t-8.5 -17t-9 -22t-13 -18.5q-9 -9 -14 -17t-9 -14t-8.5 -9.5t-12.5 -3.5q0 -8 -3.5 -12.5
t-8.5 -6.5q-5 -3 -11 -3v-65q6 -7 11 -14t8.5 -14.5t3.5 -15.5q8 -8 5.5 -22.5t-8.5 -29.5q-8 -18 -20 -36q-7 0 -11.5 0.5t-8.5 2.5t-9 6.5t-13 13.5t-12.5 14t-6.5 11t-2.5 15t-0.5 25q0 8 -6.5 16t-15 16.5t-15.5 17t-7 16.5q-9 0 -13 6.5t-6 14.5q-3 10 -3 22
q0 8 -6.5 16t-14.5 13q-10 7 -22 14q-12 6 -24 11q-11 5 -22.5 8.5t-19.5 3.5q0 7 -3.5 19t-7.5 24.5t-7.5 23.5t-3.5 20v87q13 6 20 10q6 4 8 7.5t-6 3.5q-8 8 -12.5 19.5t-6.5 22.5q-3 11 -3 24l-22 22q-6 6 -10 13q-4 6 -7 14t-3 17v44v43q40 106 93 173.5t99 106.5
q55 46 111 68v-65h-42q-8 0 -11 -4t3 -10t23.5 -14t49.5 -15zM507 99v-89h-88v89h88zM877 -76h-87v86h87v-86zM2316 99h86v-175h-86v175zM2686 -251h-2353q-58 0 -109.5 19.5t-90 54t-61.5 82.5t-23 105v1418q0 56 23 104.5t61.5 83t90 54t109.5 19.5h2353q57 0 105 -19.5
t82.5 -54t54 -83t19.5 -104.5v-1418q0 -57 -19.5 -105t-54 -82.5t-82.5 -54t-105 -19.5zM2229 -164h261v350h-261v-350zM1945 -164h87v350h-87v-350zM1508 -76h175v-88h88v350h-88v-87h-175v-175zM680 -164h284v263h-87v87h-197v-350zM333 10h86v-174h175v350h-261v-176z
M333 731h261v86h-349q0 -25 7 -41.5t20 -26t28.5 -14t32.5 -4.5zM245 905h174h22q-17 16 -19.5 35t-2.5 51h-174v-86zM333 1252q-17 0 -32.5 -7.5t-28.5 -19.5t-20 -27.5t-7 -31.5v-88h196q9 16 24.5 31.5t36 28.5t44 20.5t48.5 7.5v86h-261zM594 1078q-17 0 -32.5 -6.5
t-28 -19.5t-19.5 -28.5t-7 -32.5t7 -36t19.5 -34.5t28 -27t32.5 -11.5q24 0 41 11.5t27 27t14 34.5t4 36t-4 32.5t-14 28.5t-27 19.5t-41 6.5zM964 1252h-284v-86h371q0 16 -7 31.5t-20 27.5t-28.5 19.5t-31.5 7.5zM1051 1078h-304q8 -8 12 -19t6 -23.5t2.5 -24t0.5 -20.5
h283v87zM1051 905h-283q-8 -9 -16 -14t-14 -9t-10 -8.5t-4 -12.5q-7 0 -12 -3.5t-9 -7t-9 -7t-14 -3.5v-109h284q16 0 31.5 4.5t28.5 14t20 26t7 41.5v88zM1314 186h-88v-176h88v176zM1314 -76h-88v86h-88v-86h-87v-88h263v88zM2185 1603q-93 0 -179 -24.5t-161 -68
t-137.5 -104.5t-106.5 -133t-68.5 -154.5t-24.5 -170.5q0 -93 24.5 -179t68.5 -161.5t106.5 -136.5t137.5 -105.5t161 -69t179 -24.5t179 24.5t161.5 69t136.5 105.5t105.5 136.5t69 161.5t24.5 179q0 87 -23 170t-65.5 155t-103 133t-135.5 104.5t-162.5 68t-186.5 24.5z
M2751 882q-3 -45 -15 -86t-28 -76.5t-35 -66.5t-39 -57q-45 -61 -101 -106q-17 8 -22 19.5t-5 21.5q0 12 6 25v44l21 64q-1 24 -11 38q-8 13 -26 18t-49 -12q-33 -8 -48.5 -12t-26 -6t-22 -2.5t-34.5 -0.5q-17 0 -28 6t-19 17t-12.5 24.5t-6.5 28.5q-5 33 0 77v108
q0 8 8.5 13t22 8t31.5 4.5t35 1.5q44 0 100 -5q20 -16 36.5 -25t29 -12t22.5 -1.5t18 5.5q16 10 24 33l86 65l23 23l-66 64l-65 22q-17 -1 -27 -8q-8 -6 -10 -19.5t15 -38.5q-2 -12 -6 -21q-5 -8 -13 -15t-24 -7l-43 87q-7 -19 -17 -36q-8 -14 -20.5 -28.5t-28.5 -22.5
q-17 -8 -35.5 -9t-35.5 1q-19 3 -38 8q-6 36 -6 68q0 26 5.5 51t21.5 34l66 -22q-6 6 -9 13q-2 6 -1 14.5t10 15.5q0 16 4 19t10 3t13.5 2t15.5 19q17 9 30 0t25.5 -21t25.5 -20.5t29 -1.5q16 0 22 4t8 10t3.5 13.5t9.5 15.5q17 0 29.5 -7t20.5 -14q8 -10 15 -22l66 -21v64
q11 -17 21.5 -42t20 -55t16.5 -60t10.5 -56t3 -45t-6.5 -24h-21h-87l65 -43q6 -13 13 -22q6 -9 14.5 -16t15.5 -7zM2643 1275q8 0 12.5 -0.5t8 -2.5t8.5 -6.5t14 -13.5q-9 9 -14 13.5t-8.5 6.5t-8 2.5t-12.5 0.5zM2447 1275q-19 1 -31 6q-11 4 -16.5 12.5t2.5 25.5l22 65v65
q17 0 47 -16t62 -49q-8 -41 -22 -63t-29 -33q-17 -11 -35 -13zM2293 1275q-7 0 -5.5 10t8.5 23q7 15 20 33q0 5 3 10q2 4 6.5 7.5t11.5 3.5q8 0 9 -4t-1.5 -9.5t-5 -13t-2.5 -16.5q0 -8 0.5 -13t2 -9t6 -8.5l13.5 -13.5q8 -9 2 -13t-18 -4t-26.5 4t-23.5 13zM2229 1275
q0 13 10 19q4 3 11 3q16 0 21.5 -4t5.5 -10t-2.5 -14t-2.5 -17q-12 0 -22 3q-8 2 -14.5 6.5t-6.5 13.5zM2163 1449q-8 -7 -19 -19t-18.5 -24.5t-10.5 -24t5 -19.5q-1 -23 -6 -37q-5 -13 -13.5 -18t-25.5 12q-16 17 -31.5 32.5t-27.5 32t-19.5 33t-7.5 32.5v23
q25 15 61.5 23.5t71.5 10.5t59.5 -2t24.5 -11q-8 -8 -15.5 -12.5t-13.5 -8.5t-10 -9t-4 -14zM1945 1341q32 0 44 -7t16.5 -17.5t7.5 -21.5t19 -20q8 0 5.5 -7t-11 -17.5t-19 -21.5t-18.5 -20q-9 -7 -17 -5.5t-13 8.5q-7 7 -14 19q5 6 8 10q2 4 1 7.5t-9 3.5q-9 9 -16.5 6.5
t-11.5 -8.5t-3 -12.5t8 -6.5q17 0 20 -13.5t3 -29.5q0 -7 -3 -13q-2 -7 -7 -15t-13 -16q-7 -17 -17.5 -25.5t-21.5 -12.5q-12 -5 -25 -5q6 0 11 -3q4 -2 7.5 -7t3.5 -13q8 -8 9 -18.5t-1 -21.5q-3 -12 -8 -24q0 -9 -7.5 -9t-17.5 5.5t-21.5 18t-19.5 29.5q0 7 -3.5 8
t-8.5 -1q-4 -2 -10 -7h-64q-23 -11 -29.5 -28t-5.5 -36t9 -36t15.5 -27.5t11.5 -13t-1 9.5q0 -9 7 -10t17 1.5t21 5.5t19 3q8 7 19.5 11t22 4t17.5 -4t7 -11q8 -9 20 -16.5t24 -14t23 -10.5t20 -4q8 -8 19.5 -12.5t24 -8.5t24 -8.5t19.5 -12.5q8 -9 9 -21t-1 -23.5t-5 -23.5
t-3 -21q-8 0 -12.5 -6.5t-8.5 -17t-9 -22t-13 -18.5q-9 -9 -14 -17t-9 -14t-8.5 -9.5t-12.5 -3.5q0 -8 -3.5 -12.5t-8.5 -6.5q-5 -3 -11 -3v-65q6 -7 11 -14t8.5 -14.5t3.5 -15.5q8 -8 5.5 -22.5t-8.5 -29.5q-8 -18 -20 -36q-7 0 -11.5 0.5t-8.5 2.5t-9 6.5t-13 13.5
t-12.5 14t-6.5 11t-2.5 15t-0.5 25q0 8 -6.5 16t-15 16.5t-15.5 17t-7 16.5q-9 0 -13 6.5t-6 14.5q-3 10 -3 22q0 8 -6.5 16t-14.5 13q-10 7 -22 14q-12 6 -24 11q-11 5 -22.5 8.5t-19.5 3.5q0 7 -3.5 19t-7.5 24.5t-7.5 23.5t-3.5 20v87q13 6 20 10q6 4 8 7.5t-6 3.5
q-8 8 -12.5 19.5t-6.5 22.5q-3 11 -3 24l-22 22q-6 6 -10 13q-4 6 -7 14t-3 17v44v43q40 106 93 173.5t99 106.5q55 46 111 68v-65h-42q-8 0 -11 -4t3 -10t23.5 -14t49.5 -15zM507 99v-89h-88v89h88zM877 -76h-87v86h87v-86zM2316 99h86v-175h-86v175z" />
    <glyph glyph-name="uniF062" unicode="&#xf062;" horiz-adv-x="2096" 
d="M331 700l1354 1005v-243l-1058 -762l1058 -729v-243zM924 700l761 520v-244l-423 -276l423 -244v-242zM331 700l1354 1005v-243l-1058 -762l1058 -729v-243zM924 700l761 520v-244l-423 -276l423 -244v-242z" />
    <glyph glyph-name="uniF002" unicode="&#xf002;" horiz-adv-x="2219" 
d="M837 846h-643q-14 0 -32 11t-35 29.5t-28.5 42.5t-11.5 49v595q0 13 11.5 30t28.5 32.5t35 26t32 10.5h643q40 0 68 -10.5t44.5 -26t24 -32.5t7.5 -30v-595q0 -25 -7.5 -49t-24 -42.5t-44.5 -29.5t-68 -11zM837 1506q0 12 -0.5 24t-4 21.5t-11 15.5t-20.5 6h-535
q-20 -10 -36 -21q-14 -10 -25 -22t-11 -24v-462q0 -25 11 -38.5t25 -19.5q16 -7 36 -8h535q13 0 20.5 1t11 7t4 19.5t0.5 38.5v462zM2016 846h-642q-27 0 -53 11t-46.5 29.5t-32.5 42.5t-12 49v595q0 13 12 30t32.5 32.5t46.5 26t53 10.5h642q27 0 47 -10.5t33.5 -26
t20.5 -32.5t7 -30v-595q0 -25 -7 -49t-20.5 -42.5t-33.5 -29.5t-47 -11zM2016 1506q0 12 -6 24t-16 21.5t-23 15.5t-26 6h-500q-14 0 -26.5 -6t-22.5 -15.5t-16 -21.5t-6 -24v-462q0 -25 6 -38.5t16 -19.5t22.5 -7t26.5 -1h500q13 0 26 1t23 7t16 19.5t6 38.5v462zM837 -213
h-643q-14 0 -32 7t-35 22.5t-28.5 41t-11.5 62.5v563q0 24 11.5 47.5t28.5 42t35 29.5t32 11h643q40 0 68 -11t44.5 -29.5t24 -42t7.5 -47.5v-563q0 -37 -7.5 -62.5t-24 -41t-44.5 -22.5t-68 -7zM837 448q0 13 -0.5 20t-4 10.5t-11 4t-20.5 0.5h-535q-20 0 -36 -4
q-14 -3 -25 -10.5t-11 -20.5v-495q0 -13 11 -19.5t25 -9.5q16 -4 36 -4h535q13 0 20.5 0.5t11 3.5t4 10t0.5 19v495zM2016 -213h-642q-27 0 -53 7t-46.5 22.5t-32.5 41t-12 62.5v563q0 24 12 47.5t32.5 42t46.5 29.5t53 11h642q27 0 47 -11t33.5 -29.5t20.5 -42t7 -47.5
v-563q0 -74 -27 -103.5t-81 -29.5zM2016 448q0 13 -6 20t-16 10.5t-23 4t-26 0.5h-500q-14 0 -26.5 -0.5t-22.5 -4t-16 -10.5t-6 -20v-495q0 -12 6 -19t16 -10t22.5 -3.5t26.5 -0.5h500q13 0 26 0.5t23 3.5t16 10t6 19v495zM837 846h-643q-14 0 -32 11t-35 29.5t-28.5 42.5
t-11.5 49v595q0 13 11.5 30t28.5 32.5t35 26t32 10.5h643q40 0 68 -10.5t44.5 -26t24 -32.5t7.5 -30v-595q0 -25 -7.5 -49t-24 -42.5t-44.5 -29.5t-68 -11zM837 1506q0 12 -0.5 24t-4 21.5t-11 15.5t-20.5 6h-535q-20 -10 -36 -21q-14 -10 -25 -22t-11 -24v-462
q0 -25 11 -38.5t25 -19.5q16 -7 36 -8h535q13 0 20.5 1t11 7t4 19.5t0.5 38.5v462zM2016 846h-642q-27 0 -53 11t-46.5 29.5t-32.5 42.5t-12 49v595q0 13 12 30t32.5 32.5t46.5 26t53 10.5h642q27 0 47 -10.5t33.5 -26t20.5 -32.5t7 -30v-595q0 -25 -7 -49t-20.5 -42.5
t-33.5 -29.5t-47 -11zM2016 1506q0 12 -6 24t-16 21.5t-23 15.5t-26 6h-500q-14 0 -26.5 -6t-22.5 -15.5t-16 -21.5t-6 -24v-462q0 -25 6 -38.5t16 -19.5t22.5 -7t26.5 -1h500q13 0 26 1t23 7t16 19.5t6 38.5v462zM837 -213h-643q-14 0 -32 7t-35 22.5t-28.5 41t-11.5 62.5
v563q0 24 11.5 47.5t28.5 42t35 29.5t32 11h643q40 0 68 -11t44.5 -29.5t24 -42t7.5 -47.5v-563q0 -37 -7.5 -62.5t-24 -41t-44.5 -22.5t-68 -7zM837 448q0 13 -0.5 20t-4 10.5t-11 4t-20.5 0.5h-535q-20 0 -36 -4q-14 -3 -25 -10.5t-11 -20.5v-495q0 -13 11 -19.5t25 -9.5
q16 -4 36 -4h535q13 0 20.5 0.5t11 3.5t4 10t0.5 19v495zM2016 -213h-642q-27 0 -53 7t-46.5 22.5t-32.5 41t-12 62.5v563q0 24 12 47.5t32.5 42t46.5 29.5t53 11h642q27 0 47 -11t33.5 -29.5t20.5 -42t7 -47.5v-563q0 -74 -27 -103.5t-81 -29.5zM2016 448q0 13 -6 20
t-16 10.5t-23 4t-26 0.5h-500q-14 0 -26.5 -0.5t-22.5 -4t-16 -10.5t-6 -20v-495q0 -12 6 -19t16 -10t22.5 -3.5t26.5 -0.5h500q13 0 26 0.5t23 3.5t16 10t6 19v495z" />
    <glyph glyph-name="unie000" unicode="&#xe000;" horiz-adv-x="1844" 
d="M54 733q0 199 62.5 367t191.5 310q130 143 282.5 211t333.5 68q180 0 332.5 -68t282.5 -211q129 -142 191.5 -310t62.5 -367t-62.5 -367t-191.5 -310q-130 -143 -282.5 -211t-332.5 -68q-181 0 -333.5 68t-282.5 211q-129 142 -191.5 310t-62.5 367zM903 1178
q62 0 122.5 -26.5t122.5 -54.5l128 120q-31 34 -63.5 57t-67 43t-74 36.5t-85.5 33.5v161h-127v-161q-61 -17 -113.5 -49t-90.5 -78.5t-59.5 -108.5t-21.5 -139q0 -79 21.5 -140.5t59.5 -104.5t90.5 -65.5t113.5 -22.5h127q60 -28 92.5 -64.5t32.5 -97.5q0 -32 -15.5 -61
t-42 -53.5t-65 -38.5t-85.5 -14q-62 0 -124 30.5t-125 90.5l-127 -163q68 -60 153 -91.5t179 -31.5v-247h127v247q60 0 112.5 22.5t93 64.5t62.5 104t22 141q0 94 -15.5 156t-47 101t-78 55.5t-107.5 16.5l-169 40q-29 0 -52 13.5t-39 34t-24.5 42.5t-8.5 36q0 31 15 62
t39.5 53.5t53.5 36.5t60 14z" />
    <glyph glyph-name="uniF067" unicode="&#xf067;" horiz-adv-x="2055" 
d="M1485 696l-467 -467l-466 467h933zM1131 600h-226l-30 1082l246 -4zM1710 1404q96 -97 159.5 -211t94.5 -237t30 -250t-33.5 -248.5t-95 -233t-154.5 -204.5q-97 -97 -210.5 -161t-235 -96.5t-247.5 -32t-247.5 32.5t-235 96.5t-209.5 160.5q-93 92 -155.5 204
t-94.5 233.5t-33 248.5t30 250t94.5 237.5t159.5 210.5q92 92 205 154t236 92.5t250.5 30.5t250.5 -30.5t236 -92.5t205 -154zM359 53q88 -89 196 -148t225 -88.5t238.5 -29t238.5 29.5t224.5 88.5t196.5 147.5q88 88 146 194.5t86 222t25.5 235t-33.5 235t-91.5 222
t-148.5 194.5q-89 88 -194 147.5t-218.5 88.5t-231.5 29.5t-231.5 -29.5t-218.5 -88.5t-193 -147.5q-89 -89 -149 -195t-91 -221.5t-33.5 -235t25.5 -235t86 -221.5t146 -195z" />
    <glyph glyph-name="uniF065" unicode="&#xf065;" horiz-adv-x="2046" 
d="M85 -139v1714q0 34 24 58t58 24h1714q33 0 57.5 -24t24.5 -58v-1714q0 -33 -24.5 -58t-57.5 -25h-1714q-34 0 -58 24.5t-24 58.5zM389 191h1335q0 235 5 250q-1328 -2 -1339 -8zM389 611h1335q0 235 5 250q-1328 -2 -1339 -8zM389 1011h1335q0 235 5 250
q-1328 -2 -1339 -8z" />
    <glyph glyph-name="uniF066" unicode="&#xf066;" horiz-adv-x="4615" 
d="M4375 1716q2 -45 16 -86t38 -74t56.5 -56.5t70.5 -33.5v-57v-1342v-72q-37 -9 -69 -30.5t-56 -53t-38.5 -70.5t-17.5 -82h-4320v94q26 32 37 65q9 29 4.5 62t-41.5 65v46q26 32 37 65q4 14 6 30t-1.5 32.5t-13.5 33t-28 31.5v66q26 29 37 62q4 14 6 30t-1.5 34t-13.5 37
t-28 38v85q26 33 37 67q4 15 6 31t-1.5 33.5t-13.5 34.5t-28 34q-3 3 -3.5 17t0.5 30q1 18 3 41q22 30 31 62q8 27 4 58.5t-35 60.5v96q24 25 34 54q8 25 4 58t-38 69v83q20 26 28 53q7 23 3.5 50.5t-31.5 52.5v96h4320zM3716 17q51 0 96 18.5t78.5 50t53 74t19.5 90.5v975
q0 48 -19.5 91t-53 75.5t-78.5 51t-96 18.5h-2824q-50 0 -95 -18.5t-79 -51t-53.5 -75.5t-19.5 -91v-975q0 -48 19.5 -90.5t53.5 -74t79 -50t95 -18.5h2824v0zM3716 1381q34 0 64 -12t52.5 -33t35.5 -49.5t13 -61.5v-975q0 -32 -13 -60.5t-35.5 -49.5t-52.5 -33.5t-64 -12.5
h-2824q-34 0 -63.5 12.5t-52 33.5t-35.5 49.5t-13 60.5v975q0 33 13 61.5t35.5 49.5t52 33t63.5 12h2824zM1944 526q0 16 4.5 38t9.5 57q-15 0 -26 4t-21 9q-5 -30 -7 -52t-7 -42q-11 -16 -23 -25t-38 -9h-284q-20 0 -33.5 14t-13.5 40v162h338v-33h54v263h-460v-40h406
v-149h-338v81h-48v-297q0 -42 21 -65t67 -23h298q41 0 66 16t35 51zM2438 844h102v41h-102v108h-47v-108h-237v-41h237v-223q0 -20 -7 -30.5t-27 -10.5t-40.5 1t-40.5 6q0 -15 3.5 -29t3.5 -25h88q35 0 51 19.5t16 54.5v237zM2005 966q20 -26 39.5 -52t35.5 -56
q10 5 20 13.5t20 13.5q-42 62 -81 101l-34 -20v0zM2174 770q20 -26 41 -57t47 -72l41 34q-15 20 -39.5 53t-55.5 69zM2053 756v-196q-16 -15 -33 -29t-42 -39l27 -47q26 31 41.5 50t26.5 24q20 -30 58 -45t84 -15l149 -7h162q5 10 10 21t10 26l-175 -7h-149q-41 5 -72 17
t-57 38v250h-108v-41h68zM3033 438q31 0 46 18.5t15 49.5v467h-196v-217q0 -66 -4 -114.5t-9 -74.5q-11 -26 -26 -54.5t-35 -53.5q10 -11 16.5 -17.5t17.5 -16.5q35 41 54.5 94.5t19.5 114.5h122v-121q0 -16 -6 -25t-21 -9q-11 0 -26 3.5t-35 3.5q0 -11 3.5 -20.5t3.5 -20.5
q15 -5 30 -6t30 -1zM3054 817h-115v115h115v-115zM3054 668h-115v115h115v-115zM2817 878h47v34h-47v74h-41v-74h-115v74h-40v-74h-48v-34h48v-264h-54v-40h297v40h-47v264zM2776 810h-115v68h115v-68zM2776 716h-115v61h115v-61zM2776 614h-115v61h115v-61zM2661 560
q-25 -26 -50 -50.5t-51 -44.5q10 -10 16 -19t11 -14q26 20 52 45t56 56l-34 27v0zM2837 506q-20 15 -37 30.5t-37 30.5l-27 -34q20 -15 37 -30.5t37 -30.5l27 34v0z" />
    <glyph glyph-name="x" unicode="x" 
d="M487 1079q78 56 140.5 63t107.5 -7q51 -17 90 -54l238 -295l293 291q43 49 119 49q41 -2 74.5 -13t62.5 -26q30 -16 59 -36l-454 -459l186 -236q18 -22 37.5 -43.5t43 -31t52.5 -3t68 40.5q22 -38 26 -86q4 -40 -14.5 -92.5t-79.5 -109.5q-53 -49 -102.5 -60.5
t-87.5 -3.5q-46 8 -84 35q-17 10 -35 25q-17 12 -37.5 32.5t-44.5 53.5q-10 14 -61.5 77.5t-120.5 147.5l-295 -291q-41 -47 -113 -47q-29 0 -64.5 11.5t-66.5 25.5q-37 16 -72 37l455 461q-35 43 -64.5 80.5t-52.5 66.5q-26 35 -47 63q-59 72 -105 82.5t-116 -43.5
q-19 15 -27 51.5t-2 79.5t28.5 87.5t65.5 76.5z" />
    <glyph glyph-name="uniF063" unicode="&#xf064;" horiz-adv-x="2055" 
d="M678 394v660h660zM860 712l160 160l818 -729l-181 -159zM1020 -266q-137 0 -262.5 36t-234 101t-197.5 155.5t-152.5 199.5t-98 232t-34.5 254q0 136 34.5 262t98 234.5t152.5 197.5t197.5 152.5t234.5 98t262 34.5q131 0 254 -34.5t232 -98t199.5 -152.5t155.5 -197.5
t101 -234.5t36 -262q0 -131 -36 -254t-101 -232t-155.5 -199.5t-199.5 -155.5t-232 -101t-254 -36zM1020 1645q-125 0 -243 -34.5t-221.5 -96t-190 -148t-148 -190t-96 -221.5t-34.5 -243t34.5 -241t96 -217t148 -184.5t190 -143t221.5 -92t243 -32.5t241 32.5t217 92
t184.5 143t143 184.5t92 217t32.5 241t-32.5 243t-92 221.5t-143 190t-184.5 148t-217 96t-241 34.5z" />
  </font>
</defs>
</svg>
